<svg width="1440" height="1024" viewBox="0 0 1440 1024" fill="none" xmlns="http://www.w3.org/2000/svg">
<path d="M270 853.206C270 955.033 253.467 1086 148.848 1086C44.2282 1086 -143 980.174 -143 878.348C-143 776.522 -121.888 626 -17.2682 626C87.3513 626 270 751.38 270 853.206Z" fill="#FFDF8C"/>
<path d="M946 550.581C946 649.761 780.734 683 680.14 683C579.547 683 498 602.599 498 503.419C498 404.239 663.266 371 763.86 371C864.453 371 946 451.401 946 550.581Z" fill="#F5C79D"/>
<path d="M1438.05 786.77C1415.51 1020.78 1186.77 1004.77 1083.96 1004.77C981.141 1004.77 1065.72 886.055 1065.72 786.77C1065.72 687.486 1149.07 607 1251.88 607C1354.7 607 1455.36 607 1438.05 786.77Z" fill="#90BCE4"/>
<ellipse cx="1372.5" cy="370.5" rx="136.5" ry="179.5" fill="#B8E0E3"/>
<path d="M753 836.933C753 919.186 647.523 1024 568.271 1024C489.018 1024 466 919.186 466 836.933C466 754.679 530.247 688 609.5 688C688.753 688 753 754.679 753 836.933Z" fill="#FFB8AF"/>
<path d="M1116.4 634.38C1143.81 655.577 1112.67 761.873 1063.03 821.446C1013.39 881.019 964.043 871.31 936.632 850.114C909.221 828.917 927.242 763.44 976.883 703.867C1026.52 644.294 1088.99 613.183 1116.4 634.38Z" fill="#B89FD1"/>
<path d="M133.616 287.657C133.616 342.893 108.937 419.047 25.8082 387.671C-33.7326 387.671 -82 342.893 -82 287.657C-82 232.421 80.5848 144 140.126 144C199.666 144 133.616 232.421 133.616 287.657Z" fill="#C1DAC0"/>
<g filter="url(#filter0_b_190_2)">
<path d="M-26 0H1540V1226H-26V0Z" fill="white" fill-opacity="0.2"/>
</g>
<defs>
<filter id="filter0_b_190_2" x="-426" y="-400" width="2366" height="2026" filterUnits="userSpaceOnUse" color-interpolation-filters="sRGB">
<feFlood flood-opacity="0" result="BackgroundImageFix"/>
<feGaussianBlur in="BackgroundImageFix" stdDeviation="200"/>
<feComposite in2="SourceAlpha" operator="in" result="effect1_backgroundBlur_190_2"/>
<feBlend mode="normal" in="SourceGraphic" in2="effect1_backgroundBlur_190_2" result="shape"/>
</filter>
</defs>
</svg>
