<?xml version="1.0" encoding="UTF-8"?>
<svg id="Layer_1" data-name="Layer 1" xmlns="http://www.w3.org/2000/svg" viewBox="0 0 1682.82 267.38">
  <defs>
    <style>
      .cls-1, .cls-2 {
        stroke-width: 0px;
      }

      .cls-2 {
        fill: #fff;
      }
    </style>
  </defs>
  <path class="cls-1" d="M928.68,157.32c-.15-5.55-.65-10.9-.39-16.22.61-12.42,3.84-24.09,11.71-34.01,7.06-8.9,16.23-14.76,27.39-16.96,5.29-1.04,10.82-1.61,16.2-1.35,10.15.49,19.43,3.66,27.41,10.44,6.07,5.17,10.14,11.56,13.51,19.17v-24.58h30.86v2.55c0,23.26,0,46.52,0,69.79,0,5.55,3.24,10.34,7.56,10.92,6.08.81,11.02-1.37,14.51-6.37,3.1-4.44,4.51-9.59,5.57-14.84,1.68-8.34,1.77-16.81,1.28-25.21-.57-9.75-2.55-19.27-6.77-28.24-3.58-7.59-8.14-14.47-14.19-20.24-7.52-7.16-16.18-12.71-26.04-16.01-6.72-2.25-13.65-3.91-20.55-5.53-3.13-.73-6.42-.82-9.66-.98-5.1-.26-10.22-.61-15.32-.43-10.27.36-20.39,1.83-30.3,4.71-9.55,2.77-18.42,6.97-26.43,12.79-7.93,5.77-14.32,13.01-19.41,21.45-5.72,9.48-8.84,19.84-10.83,30.6-.64,3.47-.67,7.05-.99,10.58-.15,1.65-.44,3.3-.44,4.96.02,11.99,1.14,23.83,5.05,35.25,3.01,8.78,7.4,16.79,13.3,23.99,8.2,10,18.21,17.62,30.03,22.79,7.54,3.3,15.37,5.65,23.55,7.02,8.42,1.41,16.86,2.06,25.34,1.7,5.78-.25,11.53-1.11,17.28-1.75,3.8-.42,7.58-.95,11.51-1.44v32.27c-2.75.45-5.57,1.07-8.43,1.36-6.9.7-13.81,1.41-20.74,1.81-3.63.21-7.29-.22-10.94-.39-3.11-.14-6.24-.13-9.33-.5-5.56-.68-11.21-1.15-16.61-2.52-7.86-1.99-15.64-4.42-23.27-7.18-9.17-3.33-17.62-8.2-25.34-14.15-4.89-3.77-9.6-7.85-14.01-12.18-6-5.89-10.82-12.75-15.09-20.01-5.9-10.04-10.06-20.77-12.55-32.1-1.22-5.54-1.8-11.22-2.46-16.87-.5-4.28-.99-8.6-.9-12.9.3-14.58,1.69-28.99,6.21-43.01,3.88-12.06,9.38-23.2,17.21-33.13,3.27-4.15,6.79-8.15,10.52-11.89,6.32-6.32,13.55-11.5,21.35-15.91,8.08-4.57,16.49-8.4,25.48-10.73,7.03-1.82,14.16-3.38,21.33-4.54,5.57-.9,11.27-1.05,16.92-1.45,3.41-.24,6.85-.61,10.25-.42,7.08.41,14.19.81,21.18,1.87,8.19,1.25,16.27,3.21,24.49,4.89-3.43-11.72-2.4-23.33,4.78-34.21,8.55,4.63,14.9,10.97,18.63,19.71,3.73,8.73,3.74,17.74,1.64,27.22,15.77-14.22,32.72-16.17,51.15-5.85-6.66,12.59-16.77,19.71-30.64,21.78,7.42,7.81,13.29,16.32,17.78,25.74,3.91,8.19,6.54,16.78,8.15,25.73,1.77,9.85,2.25,19.78,1.72,29.71-.6,11.26-2.67,22.29-7.27,32.73-3.14,7.13-7.29,13.56-12.92,18.93-7.01,6.68-15.29,11.06-25,12.21-4.8.57-9.69,1.14-14.5.88-15.01-.82-28.96-8.37-34.72-24.48-.1-.27-.37-.47-.55-.69-1.93,2.82-3.77,5.68-5.79,8.42-4.2,5.69-9.8,9.61-16.31,12.21-7.4,2.96-15.21,3.77-23.04,3.17-10.95-.84-20.97-4.33-29.64-11.44-9.33-7.65-14.86-17.56-18.03-28.93-.86-3.07-1-6.34-1.47-9.73M968.73,132.62c-2.55,4.19-3.43,8.88-3.61,13.64-.2,5.56.69,11.06,3.22,16.07,2.21,4.36,5.04,8.34,9.63,10.61,8.62,4.28,17.2,3.97,25.35-.99,4.91-2.99,8.07-7.5,9.73-13.2,1.63-5.61,1.5-11.28,1.16-16.9-.19-3.22-1.13-6.7-2.74-9.49-6.33-10.93-17.75-13.62-28.38-11.24-6.37,1.43-11.14,5.38-14.36,11.48M1086.36,51.32c-2.31.46-4.63.91-7.42,1.47,2.14.97,14.25-1.98,19.12-4.43-4.23,1.02-7.79,1.88-11.69,2.96Z"/>
  <path class="cls-1" d="M0,175.26V31.19c.73-.04,1.39-.11,2.05-.11,23.8,0,47.6-.33,71.38.12,14.29.26,28.27,3.01,41.41,9.09,7.89,3.65,15.1,8.24,21.62,14.05,7.21,6.43,12.84,14.01,17.19,22.49,3.76,7.32,6.08,15.2,7.62,23.32,1.84,9.67,1.67,19.43,1.2,29.13-.48,9.82-3.18,19.27-7.17,28.34-3.64,8.28-8.59,15.58-14.59,22.32-8.26,9.28-18.32,15.81-29.56,20.85-7.92,3.56-16.21,5.64-24.68,7.09-3.85.66-7.82.91-11.73.95-23.99.23-47.98.35-71.96.5-.83,0-1.67,0-2.76,0v-34.09M88.43,164c7.39-2.42,13.55-6.74,18.52-12.61,6.2-7.32,9.22-16.1,9.95-25.5.53-6.77.36-13.62-1.25-20.36-2.18-9.15-6.53-17.02-14.04-22.68-8.58-6.47-18.58-9.22-29.26-9.38-8.36-.12-16.73-.02-25.1-.02h-2v93.51c7.08,0,14.05-.1,21.02.03,7.43.13,14.69-.75,22.15-3Z"/>
  <path class="cls-1" d="M1633.57,207.96c-2.06.31-3.2-.39-4.27-2.02-8.47-12.91-17.07-25.73-25.6-38.61-2.5-3.77-4.89-7.6-7.31-11.42-.64-1.02-1.41-1.44-2.7-1.43-7.67.08-15.34.04-23.2.04v53.27h-45.12V31.07h2c25.56,0,51.12-.17,76.67.09,8.96.09,17.85,1.54,26.5,4.17,8.01,2.44,15.47,6.02,22.1,11.11,7.03,5.39,12.15,12.36,15.33,20.63,2.17,5.65,3.59,11.5,3.73,17.61.11,4.65.56,9.3.39,13.93-.32,8.62-1.95,17.07-6.03,24.72-5.56,10.43-13.95,18.04-24.77,22.91-.41.18-.8.38-1.35.65,14.24,20.3,28.47,40.58,42.86,61.08h-49.25M1570.36,99.02v20.5c10.29,0,20.32.07,30.36-.04,2.83-.03,5.75-.22,8.47-.95,7.08-1.89,12.16-6.27,15.17-13.06,2.41-5.43,2.63-11.03,1.7-16.73-.81-4.95-2.98-9.36-6.58-12.85-5.12-4.97-11.59-6.89-18.55-7-9.51-.16-19.02-.04-28.53-.03-.66,0-1.32.07-2.05.11v30.06Z"/>
  <path class="cls-1" d="M566.14,236.98v-15.22c2.57.17,5.03.26,7.48.5,2.24.22,4.45.79,6.68.87,10.82.38,21.66,1.03,32.47.82,7.11-.14,14.2-1.61,20.65-4.96,7.22-3.75,11.76-9.7,12.79-17.81.65-5.12.53-10.34.76-15.49-2.96,3.64-5.55,7.46-8.76,10.65-6.32,6.29-14.02,10.22-22.88,11.59-4.15.64-8.37,1.41-12.53,1.32-9.13-.21-18.11-1.61-26.38-5.89-9.43-4.88-16.84-11.92-22.23-21.06-4.89-8.29-7.92-17.25-8.72-26.84-.58-6.96-1.09-13.98-.87-20.95.31-9.72,2.3-19.17,6.36-28.12,3.72-8.2,8.93-15.3,15.69-21.17,7.71-6.69,16.61-11.3,26.81-12.59,6.31-.8,12.78-1.36,19.08-.86,10.27.81,19.59,4.47,27.4,11.62,5.1,4.67,8.96,10.08,11.69,16.38.28.64.65,1.24,1.43,1.76v-26.1h35.16v2.21c0,39.3.15,78.6-.09,117.9-.07,11.6-1.99,23.05-7.3,33.59-4.71,9.36-11.84,16.36-21.15,21.25-8.49,4.46-17.46,7.36-26.9,8.66-6.71.92-13.5,1.28-20.25,1.9-1.42.13-2.85.47-4.26.43-8.6-.25-17.21-.44-25.8-.95-5.44-.32-10.84-1.18-16.33-1.8v-21.64M630.77,169.72c2.24-1.59,4.73-2.94,6.68-4.83,4.68-4.56,7.58-10.18,7.86-16.77.26-6.12.82-12.39-.13-18.37-1.51-9.46-7.48-15.93-16.37-19.65-10.7-4.47-24.69-1.96-32.42,7.39-4.99,6.05-7.16,12.98-7.6,20.51-.22,3.8.26,7.7.88,11.48,1.49,9.09,6.38,15.9,14.55,20.22,4.99,2.64,10.42,3.07,15.96,2.83,3.64-.16,7-1.16,10.58-2.8Z"/>
  <path class="cls-1" d="M1448.59,207.84c-4.89,1.31-9.6,2.61-14.37,3.68-2.48.56-5.04.9-7.57,1.01-6.02.27-12.07.71-18.08.42-10.23-.5-20.35-2.12-29.89-5.98-8.37-3.38-16-8.09-22.97-13.92-9.02-7.54-15.83-16.78-21.16-27.12-3.9-7.57-6.61-15.61-8.39-23.99-1.86-8.79-2.53-17.66-2.22-26.59.45-12.68,2.8-25,7.77-36.75,3.54-8.36,8.33-15.88,14.18-22.83,7.54-8.96,16.83-15.51,27.26-20.49,6.9-3.3,14.25-5.22,21.81-6.58,9-1.63,18.07-1.75,27.06-1.18,14.99.96,29.36,4.65,42.03,13.17,4.89,3.28,9.82,6.72,13.96,10.87,9.93,9.93,16.53,21.89,19.53,35.69.84,3.86,1.42,7.77,2.16,11.86h-44.69c-1.93-4.22-3.37-8.63-5.81-12.4-5.75-8.91-14.2-14.12-24.63-15.98-3.76-.67-7.6-1.4-11.38-1.33-9.87.19-19.3,2.36-27.03,8.91-7.33,6.2-12.05,14.15-14.36,23.53-1.66,6.77-2.54,13.65-2.23,20.59.38,8.67,1.65,17.24,5.66,25.09,6.16,12.06,15.64,19.89,29.25,22.24,11.6,2.01,22.86,1.21,33.52-4.16,9.18-4.63,15.52-11.71,18.39-21.71.16-.57-.04-1.32.25-1.77.37-.58,1.08-1.34,1.64-1.34,14.57-.07,29.15-.06,43.73-.06-2.14,27.66-21.09,55.74-53.43,67.14Z"/>
  <path class="cls-1" d="M1263.1,205.2c-6.24,3.12-12.75,4.73-19.39,6.01-8.3,1.61-16.69,2.13-25.1,1.77-13.82-.59-27.23-3.02-39.48-9.96-9.97-5.65-17.99-13.27-23.84-23.18-4.77-8.08-7.87-16.74-9.15-26.01-.7-5.07-1.34-10.2-1.36-15.3-.12-34.47-.06-68.94-.06-103.4v-2.58h45.14v2.52c0,35.24-.25,70.47.14,105.71.13,11.59,5.5,21.04,16.24,26.51,4.89,2.49,10.26,3.39,15.83,3.41,6.47.03,12.7-.71,18.49-3.75,7.49-3.93,12.14-10.21,14.15-18.26,1.01-4.04,1.41-8.33,1.42-12.5.11-34.47.06-68.93.06-103.57h45.01c.03.42.12,1,.12,1.58,0,35.77.19,71.55-.11,107.32-.09,10.44-2.29,20.68-6.45,30.42-3.8,8.9-9.23,16.6-16.29,23.14-4.51,4.18-9.68,7.43-15.39,10.12Z"/>
  <path class="cls-1" d="M192.44,94.52c4.4-5.48,9.39-10.05,15.21-13.67,7.62-4.74,15.75-8.18,24.75-9.23,4.33-.51,8.68-1.41,13-1.29,11.78.32,23.35,1.91,33.8,8,9.51,5.54,17.28,12.83,23.01,22.3,4.78,7.89,7.85,16.41,9.58,25.4.68,3.54.86,7.2.95,10.81.15,5.66.04,11.33.04,17.16h-93.99c2.59,10.77,7.56,19.22,18.8,22.28,4.58,1.25,9.23,1.61,14.06.94,3.74-.52,7.3-1.25,10.65-2.94,3.19-1.6,5.51-4.09,7.29-7.16.28-.48.94-1.03,1.43-1.03,13.12-.06,26.23-.04,39.47-.04-1.7,7.83-4.62,14.95-9.17,21.36-5.74,8.09-13.13,14.26-21.99,18.69-6.49,3.25-13.33,5.41-20.58,5.99-5.44.44-10.92,1.12-16.34.85-14.59-.71-28.04-4.96-39.58-14.29-6.98-5.65-12.75-12.32-17.03-20.25-4.08-7.56-7.1-15.5-7.93-24.08-.6-6.11-1.11-12.29-.87-18.41.39-9.95,2.68-19.61,7.26-28.51,2.3-4.46,5.36-8.52,8.19-12.89M262.34,130.11h8.94c-3.59-19.68-14.63-25.36-29.64-23.85-12.13,1.22-20.26,9.18-22.76,23.85h43.47Z"/>
  <path class="cls-1" d="M749.45,75.29h3.32v29.44c.17.02.33.03.5.05.89-2.52,1.7-5.07,2.67-7.56,3.74-9.55,9.92-17.12,19.11-21.75,5.74-2.89,12-4.45,18.55-4.34,3.45.06,6.92-.2,10.36.05,9.84.71,18.72,3.86,26.09,10.72,8.29,7.73,12.19,17.61,14.33,28.42,1.56,7.84,1.87,15.75,1.85,23.72-.05,23.72-.02,47.45-.02,71.17v2.62h-44.22v-2.44c0-25.34.02-50.67-.01-76.01-.01-8.68-6.66-17.46-15.5-18.71-7.49-1.06-14.03.27-19.35,5.76-3.38,3.48-5.15,7.9-5.17,12.71-.1,25.34-.05,50.67-.05,76.01v2.66h-44.08V75.29h31.61Z"/>
  <path class="cls-1" d="M444.41,149.61c4.13,7.48,4.82,15.47,4.2,23.56-.72,9.42-4.65,17.57-11.57,24-6.99,6.5-15.4,10.59-24.71,12.56-5.4,1.15-10.92,1.77-16.42,2.32-4.23.42-8.53.68-12.78.45-11.74-.62-23.3-2.26-33.92-7.78-10.6-5.51-18.67-13.37-22.16-25.12-1.24-4.17-1.86-8.52-2.83-13.1h5.45c10.52,0,21.03.03,31.55-.03,1.63,0,2.33.25,2.91,2.12,1.65,5.27,5.84,8.25,10.73,10.36,5.86,2.52,12.06,2.61,18.23,2.21,4.04-.26,8.03-1.13,11.74-3.1,6.22-3.31,5.9-10.71.84-14.62-3.35-2.59-7.44-3.7-11.54-4.26-7.96-1.1-16-1.62-23.92-2.89-8.74-1.4-17.27-3.89-24.67-8.93-8.66-5.9-14.33-13.94-16.24-24.51-1.72-9.51-.83-18.67,3.34-27.33,3.33-6.92,8.83-11.94,15.47-15.77,7.45-4.31,15.6-6.65,24.01-7.56,7.11-.77,14.37-.93,21.51-.47,9.97.65,19.66,2.86,28.62,7.67,12.09,6.49,19.94,16.07,22.26,29.82.43,2.57.76,5.15,1.18,7.99h-4.69c-10.59,0-21.19-.03-31.78.03-1.77,0-2.65-.24-3.26-2.3-1.88-6.26-6.66-9.8-12.73-11.34-5.79-1.47-11.73-1.75-17.51.28-2.97,1.05-5.98,2.28-7.18,5.56-1.84,5.02.47,9.5,6.29,11.33,3.87,1.22,7.96,1.87,12,2.39,10.28,1.32,20.63,2.08,30.53,5.54,7.99,2.79,15.27,6.75,21.18,12.83,2.25,2.32,3.86,5.28,5.86,8.09Z"/>
  <path class="cls-1" d="M520.54,105.7v102.13h-44.14v-100.2h-16.54v-32.2h60.67v30.27Z"/>
  <path class="cls-1" d="M512.85,27.76c6.47,7.99,6.47,21.71.82,29.46-3.31,4.54-7.78,6.72-13.17,7.5-4.75.68-9.43.64-14.13-.45-8.26-1.92-12.85-7.41-14.59-15.34-1.27-5.81-.87-11.66,1.84-17.1,3.23-6.48,8.71-9.56,15.79-10.49,5.02-.66,9.85-.36,14.7.96,3.43.94,6.25,2.75,8.74,5.46Z"/>
  <path class="cls-2" d="M1086.52,51.21c3.73-.97,7.3-1.83,11.53-2.85-4.87,2.45-16.97,5.4-19.12,4.43,2.8-.55,5.11-1.01,7.59-1.58Z"/>
  <path class="cls-2" d="M88.26,164.09c-7.29,2.15-14.56,3.03-21.98,2.9-6.97-.13-13.94-.03-21.02-.03v-93.51h2c8.37,0,16.73-.1,25.1.02,10.68.15,20.68,2.91,29.26,9.38,7.51,5.66,11.86,13.54,14.04,22.68,1.61,6.73,1.78,13.58,1.25,20.36-.74,9.39-3.76,18.18-9.95,25.5-4.97,5.87-11.13,10.19-18.69,12.71Z"/>
  <path class="cls-2" d="M1570.36,98.79v-29.83c.73-.04,1.39-.11,2.05-.11,9.51,0,19.02-.12,28.53.03,6.96.12,13.43,2.03,18.55,7,3.6,3.49,5.77,7.9,6.58,12.85.93,5.7.71,11.3-1.7,16.73-3.02,6.79-8.09,11.17-15.17,13.06-2.72.73-5.64.92-8.47.95-10.03.11-20.07.04-30.36.04v-20.73Z"/>
  <path class="cls-2" d="M630.59,169.73c-3.4,1.62-6.76,2.62-10.4,2.78-5.55.24-10.97-.19-15.96-2.83-8.16-4.32-13.06-11.13-14.55-20.22-.62-3.78-1.1-7.68-.88-11.48.44-7.53,2.6-14.47,7.6-20.51,7.72-9.35,21.71-11.86,32.42-7.39,8.89,3.72,14.85,10.19,16.37,19.65.96,5.98.39,12.25.13,18.37-.28,6.6-3.18,12.21-7.86,16.77-1.95,1.9-4.44,3.24-6.86,4.85Z"/>
  <path class="cls-2" d="M262.11,130.11h-43.24c2.5-14.67,10.64-22.63,22.76-23.85,15.02-1.51,26.05,4.17,29.64,23.85h-9.17Z"/>
</svg>