<svg version="1.1" id="Layer_1" xmlns="http://www.w3.org/2000/svg" xmlns:xlink="http://www.w3.org/1999/xlink" x="0px" y="0px"
	 width="100%" viewBox="0 0 4168 834" enable-background="new 0 0 4168 834" xml:space="preserve">
<path fill="#FFFFFF" opacity="1.000000" stroke="none" 
	d="
M3120.000000,835.000000 
	C2080.000000,835.000000 1040.500000,835.000000 1.000000,835.000000 
	C1.000000,557.000000 1.000000,279.000000 1.000000,1.000000 
	C1390.333374,1.000000 2779.666748,1.000000 4169.000000,1.000000 
	C4169.000000,279.000000 4169.000000,557.000000 4169.000000,835.000000 
	C3819.500000,835.000000 3470.000000,835.000000 3120.000000,835.000000 
M2552.278809,196.723007 
	C2539.966797,193.043457 2527.720215,189.123627 2515.328125,185.737000 
	C2493.015869,179.639175 2470.043701,177.649994 2447.097412,177.262161 
	C2428.979004,176.955902 2410.770264,178.456894 2392.697998,180.173752 
	C2379.718994,181.406769 2366.752930,183.683838 2354.039062,186.614212 
	C2326.641846,192.928879 2300.808838,203.389465 2276.749512,218.054016 
	C2249.846191,234.451645 2227.109863,255.325043 2208.963135,281.140350 
	C2194.273926,302.036987 2183.243652,324.637451 2175.811523,349.138733 
	C2169.456787,370.086548 2165.750732,391.462921 2164.158447,413.173981 
	C2163.280273,425.148773 2163.486816,437.268280 2164.131348,449.272797 
	C2164.906494,463.705078 2165.997803,478.185486 2168.156006,492.463135 
	C2171.462891,514.343262 2178.203857,535.320251 2187.740479,555.332092 
	C2201.548096,584.306396 2219.904297,609.820190 2244.311523,630.953674 
	C2259.014160,643.684143 2274.729004,654.874573 2291.882812,663.880005 
	C2318.071533,677.628662 2345.786621,686.940063 2374.990967,692.260376 
	C2393.686768,695.666260 2412.486084,697.587830 2431.341797,697.751526 
	C2449.139160,697.906006 2466.974609,696.256470 2484.752686,694.876831 
	C2493.151611,694.224976 2501.455566,692.348938 2509.632812,691.054443 
	C2509.632812,667.317871 2509.632812,644.250793 2509.632812,621.052734 
	C2507.937988,621.052734 2506.593262,620.913940 2505.284424,621.073669 
	C2486.574463,623.358154 2467.922607,626.693237 2449.146484,627.687134 
	C2433.355469,628.523071 2417.332031,627.467773 2401.573730,625.754944 
	C2383.056152,623.742249 2365.013428,618.874146 2347.700928,611.840149 
	C2329.227783,604.334412 2311.919434,594.579590 2296.999023,581.320374 
	C2277.610840,564.090881 2262.005859,543.975403 2251.811523,519.751221 
	C2243.532715,500.079895 2238.903564,479.637085 2237.166016,458.564941 
	C2236.234619,447.269196 2236.365723,435.788696 2237.165527,424.472717 
	C2238.099365,411.259094 2239.537842,397.988281 2242.069336,384.997925 
	C2249.397461,347.395599 2267.213867,315.683136 2296.686768,290.746887 
	C2313.678711,276.370514 2332.963379,266.251526 2353.841064,258.983063 
	C2376.581055,251.066254 2400.210449,247.548340 2424.098145,246.129272 
	C2443.278320,244.989853 2462.592529,245.669907 2481.459473,249.264725 
	C2497.091553,252.243210 2512.608887,256.445129 2527.689697,261.546722 
	C2548.891846,268.719208 2567.529785,280.770294 2583.622314,296.294922 
	C2596.699951,308.911102 2606.588379,323.880341 2614.303467,340.456207 
	C2623.444336,360.096558 2627.751221,380.856354 2628.733154,402.140686 
	C2629.439453,417.447144 2627.953613,432.886658 2626.920654,448.231506 
	C2626.078613,460.738586 2622.427002,472.607697 2616.647217,483.764740 
	C2609.836182,496.912903 2597.104980,503.751068 2582.862793,501.986816 
	C2573.302734,500.802582 2566.008301,490.536194 2566.005127,478.154175 
	C2565.992432,427.820831 2566.000000,377.487518 2566.000000,327.154175 
	C2566.000000,325.218140 2566.000000,323.282135 2566.000000,321.378479 
	C2543.322021,321.378479 2521.270508,321.378479 2499.000000,321.378479 
	C2499.000000,330.410858 2499.000000,339.065948 2499.000000,347.721039 
	C2499.000000,356.199402 2499.000000,364.677734 2499.000000,373.156097 
	C2488.547119,349.137360 2472.584961,330.616425 2448.923340,319.541077 
	C2426.088135,308.852722 2401.854248,307.450073 2377.576660,312.401367 
	C2343.133545,319.425842 2318.089600,339.459534 2302.575439,370.999908 
	C2294.523682,387.369446 2290.958496,405.089539 2290.167969,423.145844 
	C2289.438721,439.801544 2289.591797,456.495178 2292.904053,473.056427 
	C2298.505127,501.063538 2311.323730,524.612244 2333.443359,543.035217 
	C2352.293701,558.735168 2374.312744,566.194092 2398.288818,567.771423 
	C2408.733154,568.458557 2419.456543,567.416626 2429.848633,565.825134 
	C2447.566406,563.111938 2463.472168,555.727112 2475.783447,542.462158 
	C2483.344971,534.314758 2489.609619,524.963379 2495.941650,516.815247 
	C2498.592041,521.986328 2501.228516,528.619568 2505.101562,534.428467 
	C2521.333740,558.773743 2545.196777,569.384949 2573.601562,570.887573 
	C2581.330811,571.296387 2589.139648,570.454163 2596.898926,569.973816 
	C2608.614014,569.248596 2619.740967,566.028442 2630.370361,561.204102 
	C2653.800049,550.570068 2670.139404,532.507446 2681.854004,510.191528 
	C2694.927734,485.286407 2700.515137,458.163971 2701.745361,430.365540 
	C2702.474365,413.889648 2701.068848,397.273804 2699.904541,380.771606 
	C2698.563477,361.766510 2693.874756,343.435638 2687.041260,325.631378 
	C2676.806885,298.965851 2662.041748,275.190277 2642.131104,254.688965 
	C2636.605957,249.000015 2630.723389,243.658051 2625.935303,238.030197 
	C2639.227051,238.551880 2652.222900,237.328659 2664.630371,232.005402 
	C2683.969727,223.707977 2698.237549,210.126038 2707.909180,191.194855 
	C2690.061523,178.939240 2670.333252,174.807861 2649.489014,177.450455 
	C2628.516846,180.109299 2610.599121,189.622070 2596.291260,205.756989 
	C2602.100830,185.376480 2602.113281,165.432678 2594.377686,145.979202 
	C2586.527832,126.239159 2572.500732,111.875465 2552.853760,101.363655 
	C2550.124268,106.845299 2547.207275,111.929413 2544.989502,117.302132 
	C2538.404053,133.256836 2537.433105,149.671417 2540.721680,166.629196 
	C2542.852051,177.615112 2548.019775,187.132416 2552.278809,196.723007 
M275.000000,487.500000 
	C275.000000,515.577454 275.000000,543.654846 275.000000,571.557556 
	C276.053009,571.806091 276.370300,571.948059 276.686707,571.946106 
	C328.107147,571.638245 379.529480,571.485657 430.946411,570.875977 
	C442.596130,570.737854 454.264008,569.322815 465.858276,567.946228 
	C485.019623,565.671021 503.251190,559.828613 520.632874,551.635193 
	C543.564087,540.825745 564.240540,526.882507 581.136475,507.551910 
	C591.581848,495.601471 600.815247,482.926086 607.979980,468.829956 
	C619.151672,446.850586 626.395264,423.409790 627.640808,398.894806 
	C628.662781,378.780853 627.997253,358.344910 625.568848,338.356781 
	C623.023926,317.410126 615.990601,297.381927 605.426453,278.780579 
	C596.267090,262.652893 585.209167,248.226074 571.401367,235.711182 
	C557.250793,222.885513 541.449402,212.956543 524.186829,204.985535 
	C495.242767,191.620605 464.515411,185.776459 433.052734,185.234253 
	C382.418640,184.361633 331.758575,185.000000 281.109467,185.000000 
	C279.180084,185.000000 277.250671,185.000000 275.000000,185.000000 
	C275.000000,285.953094 275.000000,386.226532 275.000000,487.500000 
M3895.500000,569.000000 
	C3906.092285,569.000000 3916.684326,569.000000 3928.112061,569.000000 
	C3896.821777,524.401001 3866.003662,480.475037 3835.708252,437.294312 
	C3845.069580,431.193573 3854.560791,425.627808 3863.359863,419.125793 
	C3875.864258,409.885712 3885.428467,397.874908 3892.406982,384.015594 
	C3900.406494,368.127502 3904.008057,350.925049 3904.846924,333.336182 
	C3905.704834,315.350494 3905.162109,297.347534 3901.020508,279.622406 
	C3893.748779,248.502762 3876.163818,225.051453 3848.729492,208.971207 
	C3820.229248,192.266434 3788.767822,185.728119 3756.333252,185.230713 
	C3701.520508,184.390106 3646.685791,185.000000 3591.860352,185.000000 
	C3590.073730,185.000000 3588.287109,185.000000 3586.308594,185.000000 
	C3586.308594,313.204315 3586.308594,440.905060 3586.308594,568.620117 
	C3618.996094,568.620117 3651.373535,568.620117 3684.147949,568.620117 
	C3684.147949,529.981445 3684.147949,491.720978 3684.147949,453.000031 
	C3685.988525,453.000031 3687.452148,453.000061 3688.916016,453.000061 
	C3704.080566,453.000061 3719.246582,453.120117 3734.407959,452.900604 
	C3737.511963,452.855682 3739.249023,454.003845 3740.750244,456.356049 
	C3746.034180,464.635193 3751.264160,472.951202 3756.690674,481.136353 
	C3775.244385,509.121552 3793.947998,537.007568 3812.367432,565.080383 
	C3814.429199,568.222229 3816.557861,569.074524 3820.010986,569.059143 
	C3844.840332,568.948608 3869.670166,569.000000 3895.500000,569.000000 
M1737.023071,638.469666 
	C1742.355469,630.619751 1748.526855,623.204285 1752.858765,614.836426 
	C1764.644287,592.070312 1768.648560,567.136169 1768.802124,541.955627 
	C1769.321411,456.804901 1769.000000,371.649017 1769.000000,286.495117 
	C1769.000000,284.743530 1769.000000,282.991943 1769.000000,281.276337 
	C1743.310425,281.276337 1718.383423,281.276337 1693.054199,281.276337 
	C1693.054199,301.077484 1693.054199,320.608521 1693.054199,340.139557 
	C1685.833374,324.223694 1676.957886,309.868622 1663.817871,298.152130 
	C1646.690796,282.880249 1626.502197,274.852692 1604.125122,273.301636 
	C1590.368164,272.348145 1576.264038,273.309967 1562.571411,275.232880 
	C1540.648926,278.311584 1521.395508,288.205872 1504.822876,302.803619 
	C1490.203857,315.680389 1478.937988,331.105225 1470.886230,349.014282 
	C1461.920532,368.956268 1457.971558,389.909821 1457.130493,411.494720 
	C1456.712158,422.235657 1457.725464,433.028625 1457.982422,443.800629 
	C1458.333618,458.525238 1461.378540,472.719482 1466.005127,486.644989 
	C1476.696167,518.824585 1496.318726,543.747070 1526.729980,559.124634 
	C1547.155396,569.452881 1569.181641,572.633728 1592.127930,571.202454 
	C1605.733154,570.353821 1618.856812,568.258789 1631.360962,562.967407 
	C1645.488525,556.989014 1657.950439,548.606567 1667.359741,536.217712 
	C1671.210815,531.146790 1674.963135,526.000854 1679.524292,519.860535 
	C1678.983276,532.124756 1679.254883,543.314392 1677.831299,554.284180 
	C1675.537842,571.959717 1665.706055,584.915222 1649.837646,592.992737 
	C1635.100098,600.494568 1619.042358,603.382629 1602.788696,603.811035 
	C1584.374390,604.296509 1565.912476,603.585083 1547.490234,602.889893 
	C1538.652100,602.556335 1529.865723,600.980103 1521.040771,600.123230 
	C1515.526367,599.587769 1509.983765,599.344177 1504.212158,598.953247 
	C1504.212158,625.844727 1504.212158,652.112244 1504.212158,678.847961 
	C1512.210083,679.901001 1520.102417,681.373596 1528.057373,681.901184 
	C1547.186035,683.169922 1566.335205,684.477966 1585.493408,684.829712 
	C1598.185425,685.062805 1610.958984,684.171021 1623.601929,682.868347 
	C1637.268799,681.460266 1651.022217,679.849609 1664.389648,676.800110 
	C1691.641113,670.583313 1716.657104,659.543579 1737.023071,638.469666 
M3190.910400,507.635010 
	C3200.323730,520.500549 3211.267334,531.866455 3223.992676,541.501343 
	C3238.313232,552.344177 3253.672607,561.344421 3270.484863,567.763550 
	C3290.441650,575.383118 3311.343018,578.525391 3332.470703,579.870850 
	C3350.999023,581.050903 3369.584717,579.882141 3387.868652,576.789978 
	C3410.782227,572.914978 3432.418701,565.226929 3452.563721,553.254089 
	C3472.714600,541.277771 3489.974365,526.124939 3503.722168,507.333740 
	C3517.464111,488.550781 3527.598633,467.843964 3532.113281,444.733612 
	C3533.498535,437.642578 3534.898438,430.554352 3536.276611,423.541077 
	C3534.981934,423.209015 3534.666748,423.057556 3534.351318,423.057281 
	C3503.354492,423.031158 3472.357422,423.055389 3441.361084,422.940735 
	C3438.267090,422.929321 3437.456543,424.376953 3436.976318,426.982788 
	C3434.910156,438.195129 3430.031494,448.200165 3422.641602,456.755768 
	C3405.315918,476.813538 3382.531250,486.118439 3356.701660,487.765961 
	C3345.420166,488.485535 3333.808594,487.668488 3322.642334,485.791321 
	C3300.309570,482.036987 3282.433105,470.344330 3269.012695,452.026825 
	C3253.953125,431.471985 3249.205322,407.679535 3248.117920,382.977203 
	C3247.457764,367.976166 3249.385986,353.094910 3253.010254,338.464600 
	C3258.032959,318.189697 3268.270264,300.984619 3284.155762,287.540649 
	C3300.960693,273.318176 3321.398438,268.656464 3342.781494,268.191589 
	C3351.063232,268.011536 3359.468018,269.567322 3367.684082,271.061340 
	C3390.261475,275.166901 3408.579590,286.508789 3421.088379,305.786591 
	C3426.336426,313.874908 3429.383545,323.391357 3433.609863,332.650024 
	C3464.967285,332.650024 3497.377441,332.650024 3530.299072,332.650024 
	C3529.822754,329.818634 3529.265869,327.428436 3529.037842,325.007202 
	C3527.250000,306.034180 3521.810303,288.017548 3513.388428,271.088409 
	C3504.411865,253.043579 3493.011475,236.471466 3477.076416,223.746933 
	C3466.855957,215.585815 3456.429688,207.438950 3445.170898,200.870758 
	C3419.665527,185.991241 3391.455322,179.094162 3362.247559,177.244507 
	C3346.229736,176.230148 3329.958008,176.688141 3313.978271,178.272049 
	C3295.264893,180.126831 3277.032715,184.784088 3259.669189,192.594543 
	C3235.466553,203.481476 3214.245117,218.133301 3196.908447,238.446060 
	C3184.001465,253.568832 3173.580811,270.063324 3165.871094,288.375641 
	C3154.906250,314.419403 3149.867676,341.673798 3149.090576,369.761902 
	C3148.843750,378.683563 3149.237793,387.676849 3150.109375,396.561737 
	C3151.179932,407.473236 3152.470215,418.428497 3154.713867,429.145355 
	C3158.894775,449.114777 3166.219238,468.039520 3176.425781,485.723114 
	C3180.673828,493.082977 3185.782227,499.946167 3190.910400,507.635010 
M3013.518555,188.000000 
	C3009.762207,188.000000 3006.005859,188.000000 3002.000000,188.000000 
	C3002.000000,190.724915 3002.000000,192.709854 3002.000000,194.694794 
	C3002.000000,266.351227 3002.068115,338.007782 3001.911621,409.663879 
	C3001.892578,418.368134 3001.368164,427.196320 2999.833496,435.743652 
	C2997.383301,449.391022 2991.270264,461.278534 2980.776611,470.890717 
	C2970.282959,480.502777 2958.036377,485.366821 2944.125732,487.136627 
	C2926.803467,489.340485 2909.753174,488.693054 2893.935303,480.856934 
	C2870.247559,469.122101 2858.588379,448.413635 2858.306152,423.055084 
	C2857.457275,346.742126 2858.000000,270.413666 2858.000000,194.091263 
	C2858.000000,192.163300 2858.000000,190.235321 2858.000000,188.418732 
	C2824.927246,188.418732 2792.549805,188.418732 2760.000000,188.418732 
	C2760.000000,190.833008 2760.000000,192.828888 2760.000000,194.824783 
	C2760.000000,269.147491 2759.978271,343.470215 2760.042480,417.792847 
	C2760.047363,423.563904 2760.718994,429.331726 2760.975586,435.105743 
	C2761.716797,451.785339 2765.496338,467.854828 2771.240234,483.425171 
	C2781.526367,511.308899 2798.608643,534.028564 2823.176758,551.089233 
	C2851.990967,571.098328 2884.691406,578.060181 2918.863525,579.868713 
	C2928.755615,580.392151 2938.792480,579.912659 2948.653564,578.864075 
	C2962.313477,577.411499 2976.096191,575.941833 2989.425293,572.785828 
	C3020.481445,565.432556 3046.445801,549.228516 3066.271729,524.079590 
	C3089.415039,494.722015 3099.303223,460.270569 3099.729248,423.678833 
	C3100.621826,347.033508 3100.000000,270.370575 3100.000000,193.714874 
	C3100.000000,191.941940 3100.000000,190.169006 3100.000000,188.000000 
	C3071.101074,188.000000 3042.806641,188.000000 3013.518555,188.000000 
M839.495605,498.123474 
	C833.454285,499.433380 827.407104,500.717102 821.372925,502.059082 
	C810.948853,504.377441 800.669861,502.940430 790.648499,500.182861 
	C766.374329,493.503296 755.570618,475.259247 749.970642,451.795532 
	C818.266785,451.795532 885.987244,451.795532 954.000000,451.795532 
	C954.000000,443.975433 954.243042,436.653870 953.946472,429.354218 
	C953.423401,416.480804 953.590271,403.462433 951.621216,390.791779 
	C948.557617,371.078186 941.273743,352.616241 930.831726,335.517303 
	C918.198059,314.829620 901.146973,298.695587 879.961060,287.028839 
	C855.700806,273.669037 829.443481,269.435638 802.104553,271.065125 
	C792.442993,271.640961 782.733398,272.444672 773.209229,274.090424 
	C749.225952,278.234558 728.193665,289.112854 709.898987,304.816833 
	C693.864197,318.580963 681.583557,335.390991 672.945923,354.876068 
	C664.667542,373.550629 659.949219,393.077942 659.215393,413.327698 
	C658.738403,426.489899 659.743164,439.787811 661.124207,452.915497 
	C663.043518,471.159821 669.199585,488.237122 678.085083,504.265808 
	C691.122192,527.783691 708.832825,546.615417 732.320129,560.261780 
	C754.492493,573.144104 778.402039,578.936768 803.596313,579.821960 
	C814.763916,580.214294 826.021729,578.927612 837.198242,577.945007 
	C850.489319,576.776428 863.300171,573.303894 875.427856,567.781982 
	C894.984497,558.877380 911.871033,546.514587 925.259033,529.388000 
	C937.164062,514.158325 944.797363,497.195679 948.971252,478.004272 
	C920.155823,478.004272 891.848145,477.984863 863.540833,478.084869 
	C862.548340,478.088348 861.159424,479.046448 860.632263,479.953217 
	C855.821289,488.229279 849.056885,494.221069 839.495605,498.123474 
M2041.500000,569.000000 
	C2064.917236,569.000000 2088.334473,569.000000 2112.000000,569.000000 
	C2112.000000,566.262634 2112.000000,564.276306 2112.000000,562.289917 
	C2112.000000,513.127014 2112.149902,463.963409 2111.908691,414.801697 
	C2111.836670,400.090790 2111.062988,385.354401 2109.906982,370.685181 
	C2108.545410,353.412628 2103.970215,336.969391 2096.166260,321.332794 
	C2081.163574,291.270844 2056.144531,275.678925 2023.711548,272.357269 
	C2009.385010,270.890015 1994.643311,270.868256 1980.119263,273.879333 
	C1953.833374,279.328918 1934.110718,293.529938 1921.622925,317.121735 
	C1916.412964,326.964203 1912.885864,337.697418 1908.811401,347.501587 
	C1908.811401,326.003082 1908.811401,303.729370 1908.811401,281.349182 
	C1883.402710,281.349182 1858.356689,281.349182 1833.418213,281.349182 
	C1833.418213,377.407410 1833.418213,473.115845 1833.418213,568.685181 
	C1865.431763,568.685181 1897.026367,568.685181 1929.000000,568.685181 
	C1929.000000,566.577454 1929.000000,564.772278 1929.000000,562.967163 
	C1929.000000,509.137970 1928.968384,455.308716 1929.019165,401.479584 
	C1929.034668,385.088348 1935.157959,371.972260 1949.458374,362.942444 
	C1961.533325,355.317963 1984.327637,354.744659 1996.108398,362.706238 
	C2008.986816,371.409912 2015.925903,383.664307 2015.957397,399.298859 
	C2016.067383,453.794464 2016.000000,508.290375 2016.000000,562.786194 
	C2016.000000,564.726013 2016.000000,566.665771 2016.000000,569.000000 
	C2024.568726,569.000000 2032.534302,569.000000 2041.500000,569.000000 
M1018.367371,432.089600 
	C1027.219727,439.997375 1037.766479,444.906097 1048.720947,449.003357 
	C1072.682373,457.965668 1098.038574,459.061035 1123.065674,462.023621 
	C1133.007812,463.200531 1142.746094,465.124207 1151.764526,469.897614 
	C1161.588745,475.097504 1166.200928,485.831970 1162.812256,494.494629 
	C1159.669434,502.529297 1152.617432,505.720245 1145.388672,507.631561 
	C1126.417603,512.647522 1107.272949,513.222229 1088.661011,505.926208 
	C1077.936401,501.722046 1068.941772,494.912720 1065.440796,483.385132 
	C1064.252930,479.473755 1062.695435,478.943726 1059.355347,478.954926 
	C1034.524414,479.038086 1009.693115,479.000031 984.861938,479.000000 
	C983.405090,479.000000 981.948303,479.000000 979.907593,479.000000 
	C980.219238,489.883911 982.013062,500.023529 985.437866,509.722870 
	C994.052185,534.119934 1011.198914,550.932678 1033.919556,562.421692 
	C1056.950195,574.067566 1081.896362,577.629456 1107.237793,578.873657 
	C1116.470337,579.326904 1125.806396,578.707153 1135.036499,577.903320 
	C1145.478394,576.994019 1156.025024,576.097229 1166.225464,573.837952 
	C1191.369629,568.268860 1214.077881,557.971313 1231.042847,537.515808 
	C1238.077515,529.033569 1243.022949,519.526855 1245.967285,508.993622 
	C1249.754761,495.444153 1249.907104,481.670105 1248.023926,467.799408 
	C1245.761475,451.134644 1238.688721,436.646912 1227.072388,424.749817 
	C1210.800415,408.084412 1190.474731,397.924072 1167.970947,393.249908 
	C1147.804932,389.061279 1127.144653,387.308899 1106.810913,383.844147 
	C1098.851929,382.488007 1090.857300,380.148315 1083.475952,376.899872 
	C1074.504639,372.951630 1071.856812,364.842346 1074.997314,355.536621 
	C1077.520264,348.060883 1084.035156,345.225586 1090.583984,343.098358 
	C1105.461060,338.265900 1120.481567,339.046539 1134.941772,344.621246 
	C1145.508423,348.694916 1153.349609,356.324432 1156.543091,367.472809 
	C1157.611816,371.204346 1158.970703,372.084686 1162.506592,372.066864 
	C1187.503784,371.940979 1212.501831,372.004639 1237.499634,371.987671 
	C1238.935425,371.986694 1240.371216,371.809692 1242.161011,371.691132 
	C1241.735229,366.655884 1241.692993,362.011169 1240.902954,357.497345 
	C1236.358887,331.534668 1223.920044,310.645691 1201.624146,295.833710 
	C1179.351074,281.036957 1154.392334,274.722931 1128.299438,273.217316 
	C1103.899780,271.809357 1079.400513,272.346588 1055.731567,280.020569 
	C1037.050903,286.077179 1020.200562,294.854248 1007.106445,310.216034 
	C989.112427,331.326294 985.939026,356.094849 989.313721,382.032959 
	C991.925537,402.107361 1002.180359,418.719238 1018.367371,432.089600 
M1366.500000,281.000000 
	C1335.423462,281.000000 1304.346924,281.000000 1273.258545,281.000000 
	C1273.258545,304.659943 1273.258545,327.583710 1273.258545,351.083160 
	C1285.225708,351.083160 1296.944702,351.083160 1309.204346,351.083160 
	C1309.204346,424.023071 1309.204346,496.387268 1309.204346,568.732666 
	C1341.348145,568.732666 1372.936279,568.732666 1404.692383,568.732666 
	C1404.692383,472.775269 1404.692383,377.085449 1404.692383,281.000000 
	C1392.092285,281.000000 1379.796143,281.000000 1366.500000,281.000000 
M1333.136475,164.395096 
	C1323.261597,166.846664 1314.311768,170.630753 1307.879150,179.210739 
	C1297.740356,192.734055 1296.089722,207.921814 1299.178467,223.740616 
	C1302.418945,240.336945 1312.260864,251.952621 1328.741089,256.727600 
	C1340.277344,260.070160 1352.299561,259.984222 1364.033447,257.786957 
	C1374.575928,255.812759 1383.853271,251.088715 1390.100586,241.691711 
	C1399.533447,227.503067 1401.062988,212.195068 1397.095703,195.960663 
	C1392.999268,179.197189 1382.692993,168.903717 1365.835571,164.944260 
	C1355.221558,162.451248 1344.622070,162.693298 1333.136475,164.395096 
z"/>
<path fill="#F96E46" opacity="1.000000" stroke="none" 
	d="
M2625.004883,238.156891 
	C2630.723389,243.658051 2636.605957,249.000015 2642.131104,254.688965 
	C2662.041748,275.190277 2676.806885,298.965851 2687.041260,325.631378 
	C2693.874756,343.435638 2698.563477,361.766510 2699.904541,380.771606 
	C2701.068848,397.273804 2702.474365,413.889648 2701.745361,430.365540 
	C2700.515137,458.163971 2694.927734,485.286407 2681.854004,510.191528 
	C2670.139404,532.507446 2653.800049,550.570068 2630.370361,561.204102 
	C2619.740967,566.028442 2608.614014,569.248596 2596.898926,569.973816 
	C2589.139648,570.454163 2581.330811,571.296387 2573.601562,570.887573 
	C2545.196777,569.384949 2521.333740,558.773743 2505.101562,534.428467 
	C2501.228516,528.619568 2498.592041,521.986328 2495.941650,516.815247 
	C2489.609619,524.963379 2483.344971,534.314758 2475.783447,542.462158 
	C2463.472168,555.727112 2447.566406,563.111938 2429.848633,565.825134 
	C2419.456543,567.416626 2408.733154,568.458557 2398.288818,567.771423 
	C2374.312744,566.194092 2352.293701,558.735168 2333.443359,543.035217 
	C2311.323730,524.612244 2298.505127,501.063538 2292.904053,473.056427 
	C2289.591797,456.495178 2289.438721,439.801544 2290.167969,423.145844 
	C2290.958496,405.089539 2294.523682,387.369446 2302.575439,370.999908 
	C2318.089600,339.459534 2343.133545,319.425842 2377.576660,312.401367 
	C2401.854248,307.450073 2426.088135,308.852722 2448.923340,319.541077 
	C2472.584961,330.616425 2488.547119,349.137360 2499.000000,373.156097 
	C2499.000000,364.677734 2499.000000,356.199402 2499.000000,347.721039 
	C2499.000000,339.065948 2499.000000,330.410858 2499.000000,321.378479 
	C2521.270508,321.378479 2543.322021,321.378479 2566.000000,321.378479 
	C2566.000000,323.282135 2566.000000,325.218140 2566.000000,327.154175 
	C2566.000000,377.487518 2565.992432,427.820831 2566.005127,478.154175 
	C2566.008301,490.536194 2573.302734,500.802582 2582.862793,501.986816 
	C2597.104980,503.751068 2609.836182,496.912903 2616.647217,483.764740 
	C2622.427002,472.607697 2626.078613,460.738586 2626.920654,448.231506 
	C2627.953613,432.886658 2629.439453,417.447144 2628.733154,402.140686 
	C2627.751221,380.856354 2623.444336,360.096558 2614.303467,340.456207 
	C2606.588379,323.880341 2596.699951,308.911102 2583.622314,296.294922 
	C2567.529785,280.770294 2548.891846,268.719208 2527.689697,261.546722 
	C2512.608887,256.445129 2497.091553,252.243210 2481.459473,249.264725 
	C2462.592529,245.669907 2443.278320,244.989853 2424.098145,246.129272 
	C2400.210449,247.548340 2376.581055,251.066254 2353.841064,258.983063 
	C2332.963379,266.251526 2313.678711,276.370514 2296.686768,290.746887 
	C2267.213867,315.683136 2249.397461,347.395599 2242.069336,384.997925 
	C2239.537842,397.988281 2238.099365,411.259094 2237.165527,424.472717 
	C2236.365723,435.788696 2236.234619,447.269196 2237.166016,458.564941 
	C2238.903564,479.637085 2243.532715,500.079895 2251.811523,519.751221 
	C2262.005859,543.975403 2277.610840,564.090881 2296.999023,581.320374 
	C2311.919434,594.579590 2329.227783,604.334412 2347.700928,611.840149 
	C2365.013428,618.874146 2383.056152,623.742249 2401.573730,625.754944 
	C2417.332031,627.467773 2433.355469,628.523071 2449.146484,627.687134 
	C2467.922607,626.693237 2486.574463,623.358154 2505.284424,621.073669 
	C2506.593262,620.913940 2507.937988,621.052734 2509.632812,621.052734 
	C2509.632812,644.250793 2509.632812,667.317871 2509.632812,691.054443 
	C2501.455566,692.348938 2493.151611,694.224976 2484.752686,694.876831 
	C2466.974609,696.256470 2449.139160,697.906006 2431.341797,697.751526 
	C2412.486084,697.587830 2393.686768,695.666260 2374.990967,692.260376 
	C2345.786621,686.940063 2318.071533,677.628662 2291.882812,663.880005 
	C2274.729004,654.874573 2259.014160,643.684143 2244.311523,630.953674 
	C2219.904297,609.820190 2201.548096,584.306396 2187.740479,555.332092 
	C2178.203857,535.320251 2171.462891,514.343262 2168.156006,492.463135 
	C2165.997803,478.185486 2164.906494,463.705078 2164.131348,449.272797 
	C2163.486816,437.268280 2163.280273,425.148773 2164.158447,413.173981 
	C2165.750732,391.462921 2169.456787,370.086548 2175.811523,349.138733 
	C2183.243652,324.637451 2194.273926,302.036987 2208.963135,281.140350 
	C2227.109863,255.325043 2249.846191,234.451645 2276.749512,218.054016 
	C2300.808838,203.389465 2326.641846,192.928879 2354.039062,186.614212 
	C2366.752930,183.683838 2379.718994,181.406769 2392.697998,180.173752 
	C2410.770264,178.456894 2428.979004,176.955902 2447.097412,177.262161 
	C2470.043701,177.649994 2493.015869,179.639175 2515.328125,185.737000 
	C2527.720215,189.123627 2539.966797,193.043457 2552.961426,196.933838 
	C2555.247314,198.006241 2556.780273,199.049240 2558.464355,199.701675 
	C2577.647705,207.133331 2595.457275,217.050247 2612.102783,229.109375 
	C2616.355957,232.190735 2620.701660,235.144547 2625.004883,238.156891 
M2460.461182,391.970673 
	C2447.854980,381.141418 2432.966797,377.579987 2416.851318,379.118652 
	C2405.197754,380.231323 2394.546875,384.678986 2386.397949,393.265717 
	C2375.327881,404.930328 2370.632324,419.487152 2370.091309,435.285736 
	C2369.678223,447.347412 2371.705566,459.219543 2377.175781,470.053375 
	C2381.937744,479.484375 2388.082764,488.078461 2397.984131,492.980347 
	C2416.592529,502.192780 2435.031494,501.647064 2452.780273,490.950439 
	C2463.542236,484.464386 2470.495361,474.820801 2474.109863,462.584625 
	C2477.163330,452.247803 2477.080322,441.773895 2476.995850,431.231567 
	C2476.875000,416.159546 2472.421631,402.866638 2460.461182,391.970673 
z"/>
<path fill="#64A587" opacity="1.000000" stroke="none" 
	d="
M275.000000,487.000000 
	C275.000000,386.226532 275.000000,285.953094 275.000000,185.000000 
	C277.250671,185.000000 279.180084,185.000000 281.109467,185.000000 
	C331.758575,185.000000 382.418640,184.361633 433.052734,185.234253 
	C464.515411,185.776459 495.242767,191.620605 524.186829,204.985535 
	C541.449402,212.956543 557.250793,222.885513 571.401367,235.711182 
	C585.209167,248.226074 596.267090,262.652893 605.426453,278.780579 
	C615.990601,297.381927 623.023926,317.410126 625.568848,338.356781 
	C627.997253,358.344910 628.662781,378.780853 627.640808,398.894806 
	C626.395264,423.409790 619.151672,446.850586 607.979980,468.829956 
	C600.815247,482.926086 591.581848,495.601471 581.136475,507.551910 
	C564.240540,526.882507 543.564087,540.825745 520.632874,551.635193 
	C503.251190,559.828613 485.019623,565.671021 465.858276,567.946228 
	C454.264008,569.322815 442.596130,570.737854 430.946411,570.875977 
	C379.529480,571.485657 328.107147,571.638245 276.686707,571.946106 
	C276.370300,571.948059 276.053009,571.806091 275.000000,571.557556 
	C275.000000,543.654846 275.000000,515.577454 275.000000,487.000000 
M377.655548,480.000000 
	C401.344666,479.330566 425.128998,481.762329 448.720001,477.982422 
	C466.677399,475.105194 483.105255,468.596100 496.953369,456.516693 
	C517.130066,438.916992 526.910767,415.984985 528.729187,389.885895 
	C529.617737,377.132385 528.757507,364.006348 526.739685,351.359924 
	C523.723999,332.459167 515.728394,315.779724 501.111877,302.422638 
	C482.124298,285.071167 459.292450,278.297546 434.528992,277.167786 
	C415.914917,276.318604 397.230988,277.000000 378.578156,277.000000 
	C376.819275,277.000000 375.060364,277.000000 373.000000,277.000000 
	C373.000000,279.505585 373.000000,281.317566 373.000000,283.129547 
	C373.000000,315.272369 373.000000,347.415222 373.000000,379.558044 
	C373.000031,411.534332 373.011292,443.510590 372.979248,475.486847 
	C372.976593,478.131378 372.745270,480.722260 377.655548,480.000000 
z"/>
<path fill="#64A587" opacity="1.000000" stroke="none" 
	d="
M3895.000000,569.000000 
	C3869.670166,569.000000 3844.840332,568.948608 3820.010986,569.059143 
	C3816.557861,569.074524 3814.429199,568.222229 3812.367432,565.080383 
	C3793.947998,537.007568 3775.244385,509.121552 3756.690674,481.136353 
	C3751.264160,472.951202 3746.034180,464.635193 3740.750244,456.356049 
	C3739.249023,454.003845 3737.511963,452.855682 3734.407959,452.900604 
	C3719.246582,453.120117 3704.080566,453.000061 3688.916016,453.000061 
	C3687.452148,453.000061 3685.988525,453.000031 3684.147949,453.000031 
	C3684.147949,491.720978 3684.147949,529.981445 3684.147949,568.620117 
	C3651.373535,568.620117 3618.996094,568.620117 3586.308594,568.620117 
	C3586.308594,440.905060 3586.308594,313.204315 3586.308594,185.000000 
	C3588.287109,185.000000 3590.073730,185.000000 3591.860352,185.000000 
	C3646.685791,185.000000 3701.520508,184.390106 3756.333252,185.230713 
	C3788.767822,185.728119 3820.229248,192.266434 3848.729492,208.971207 
	C3876.163818,225.051453 3893.748779,248.502762 3901.020508,279.622406 
	C3905.162109,297.347534 3905.704834,315.350494 3904.846924,333.336182 
	C3904.008057,350.925049 3900.406494,368.127502 3892.406982,384.015594 
	C3885.428467,397.874908 3875.864258,409.885712 3863.359863,419.125793 
	C3854.560791,425.627808 3845.069580,431.193573 3835.708252,437.294312 
	C3866.003662,480.475037 3896.821777,524.401001 3928.112061,569.000000 
	C3916.684326,569.000000 3906.092285,569.000000 3895.000000,569.000000 
M3732.500000,267.000000 
	C3716.420654,267.000000 3700.341064,267.000000 3684.247070,267.000000 
	C3684.247070,303.987732 3684.247070,340.235626 3684.247070,377.000000 
	C3686.270264,377.000000 3688.054199,377.000000 3689.838379,377.000000 
	C3709.993408,377.000000 3730.150391,377.151733 3750.302246,376.907440 
	C3756.337646,376.834320 3762.559326,376.396759 3768.349365,374.839172 
	C3783.598145,370.736969 3794.660889,361.340057 3801.120361,346.723114 
	C3805.989502,335.706116 3806.824463,324.365784 3805.076904,312.516968 
	C3802.048584,291.987274 3791.142578,278.072235 3771.657959,270.877167 
	C3759.265137,266.300903 3746.345459,267.048737 3732.500000,267.000000 
z"/>
<path fill="#64A587" opacity="1.000000" stroke="none" 
	d="
M1736.774658,638.724426 
	C1716.657104,659.543579 1691.641113,670.583313 1664.389648,676.800110 
	C1651.022217,679.849609 1637.268799,681.460266 1623.601929,682.868347 
	C1610.958984,684.171021 1598.185425,685.062805 1585.493408,684.829712 
	C1566.335205,684.477966 1547.186035,683.169922 1528.057373,681.901184 
	C1520.102417,681.373596 1512.210083,679.901001 1504.212158,678.847961 
	C1504.212158,652.112244 1504.212158,625.844727 1504.212158,598.953247 
	C1509.983765,599.344177 1515.526367,599.587769 1521.040771,600.123230 
	C1529.865723,600.980103 1538.652100,602.556335 1547.490234,602.889893 
	C1565.912476,603.585083 1584.374390,604.296509 1602.788696,603.811035 
	C1619.042358,603.382629 1635.100098,600.494568 1649.837646,592.992737 
	C1665.706055,584.915222 1675.537842,571.959717 1677.831299,554.284180 
	C1679.254883,543.314392 1678.983276,532.124756 1679.524292,519.860535 
	C1674.963135,526.000854 1671.210815,531.146790 1667.359741,536.217712 
	C1657.950439,548.606567 1645.488525,556.989014 1631.360962,562.967407 
	C1618.856812,568.258789 1605.733154,570.353821 1592.127930,571.202454 
	C1569.181641,572.633728 1547.155396,569.452881 1526.729980,559.124634 
	C1496.318726,543.747070 1476.696167,518.824585 1466.005127,486.644989 
	C1461.378540,472.719482 1458.333618,458.525238 1457.982422,443.800629 
	C1457.725464,433.028625 1456.712158,422.235657 1457.130493,411.494720 
	C1457.971558,389.909821 1461.920532,368.956268 1470.886230,349.014282 
	C1478.937988,331.105225 1490.203857,315.680389 1504.822876,302.803619 
	C1521.395508,288.205872 1540.648926,278.311584 1562.571411,275.232880 
	C1576.264038,273.309967 1590.368164,272.348145 1604.125122,273.301636 
	C1626.502197,274.852692 1646.690796,282.880249 1663.817871,298.152130 
	C1676.957886,309.868622 1685.833374,324.223694 1693.054199,340.139557 
	C1693.054199,320.608521 1693.054199,301.077484 1693.054199,281.276337 
	C1718.383423,281.276337 1743.310425,281.276337 1769.000000,281.276337 
	C1769.000000,282.991943 1769.000000,284.743530 1769.000000,286.495117 
	C1769.000000,371.649017 1769.321411,456.804901 1768.802124,541.955627 
	C1768.648560,567.136169 1764.644287,592.070312 1752.858765,614.836426 
	C1748.526855,623.204285 1742.355469,630.619751 1736.774658,638.724426 
M1584.069946,484.530792 
	C1594.732666,490.386414 1606.115234,492.362640 1618.266357,492.132446 
	C1634.423340,491.826385 1648.078979,485.991516 1659.412720,474.945068 
	C1671.276733,463.381439 1676.307251,448.541809 1676.873047,432.326782 
	C1677.224365,422.258667 1676.685425,412.120148 1675.908569,402.062469 
	C1675.037842,390.790009 1670.532959,380.689453 1662.842773,372.486908 
	C1646.947388,355.532288 1627.324097,348.973541 1604.311279,352.978302 
	C1580.902466,357.051971 1566.075195,371.272278 1558.030396,392.938263 
	C1552.918213,406.705902 1551.961914,420.988647 1553.895508,435.649475 
	C1556.620850,456.312836 1565.122192,473.116058 1584.069946,484.530792 
z"/>
<path fill="#64A587" opacity="1.000000" stroke="none" 
	d="
M3190.704834,507.335144 
	C3185.782227,499.946167 3180.673828,493.082977 3176.425781,485.723114 
	C3166.219238,468.039520 3158.894775,449.114777 3154.713867,429.145355 
	C3152.470215,418.428497 3151.179932,407.473236 3150.109375,396.561737 
	C3149.237793,387.676849 3148.843750,378.683563 3149.090576,369.761902 
	C3149.867676,341.673798 3154.906250,314.419403 3165.871094,288.375641 
	C3173.580811,270.063324 3184.001465,253.568832 3196.908447,238.446060 
	C3214.245117,218.133301 3235.466553,203.481476 3259.669189,192.594543 
	C3277.032715,184.784088 3295.264893,180.126831 3313.978271,178.272049 
	C3329.958008,176.688141 3346.229736,176.230148 3362.247559,177.244507 
	C3391.455322,179.094162 3419.665527,185.991241 3445.170898,200.870758 
	C3456.429688,207.438950 3466.855957,215.585815 3477.076416,223.746933 
	C3493.011475,236.471466 3504.411865,253.043579 3513.388428,271.088409 
	C3521.810303,288.017548 3527.250000,306.034180 3529.037842,325.007202 
	C3529.265869,327.428436 3529.822754,329.818634 3530.299072,332.650024 
	C3497.377441,332.650024 3464.967285,332.650024 3433.609863,332.650024 
	C3429.383545,323.391357 3426.336426,313.874908 3421.088379,305.786591 
	C3408.579590,286.508789 3390.261475,275.166901 3367.684082,271.061340 
	C3359.468018,269.567322 3351.063232,268.011536 3342.781494,268.191589 
	C3321.398438,268.656464 3300.960693,273.318176 3284.155762,287.540649 
	C3268.270264,300.984619 3258.032959,318.189697 3253.010254,338.464600 
	C3249.385986,353.094910 3247.457764,367.976166 3248.117920,382.977203 
	C3249.205322,407.679535 3253.953125,431.471985 3269.012695,452.026825 
	C3282.433105,470.344330 3300.309570,482.036987 3322.642334,485.791321 
	C3333.808594,487.668488 3345.420166,488.485535 3356.701660,487.765961 
	C3382.531250,486.118439 3405.315918,476.813538 3422.641602,456.755768 
	C3430.031494,448.200165 3434.910156,438.195129 3436.976318,426.982788 
	C3437.456543,424.376953 3438.267090,422.929321 3441.361084,422.940735 
	C3472.357422,423.055389 3503.354492,423.031158 3534.351318,423.057281 
	C3534.666748,423.057556 3534.981934,423.209015 3536.276611,423.541077 
	C3534.898438,430.554352 3533.498535,437.642578 3532.113281,444.733612 
	C3527.598633,467.843964 3517.464111,488.550781 3503.722168,507.333740 
	C3489.974365,526.124939 3472.714600,541.277771 3452.563721,553.254089 
	C3432.418701,565.226929 3410.782227,572.914978 3387.868652,576.789978 
	C3369.584717,579.882141 3350.999023,581.050903 3332.470703,579.870850 
	C3311.343018,578.525391 3290.441650,575.383118 3270.484863,567.763550 
	C3253.672607,561.344421 3238.313232,552.344177 3223.992676,541.501343 
	C3211.267334,531.866455 3200.323730,520.500549 3190.704834,507.335144 
z"/>
<path fill="#64A587" opacity="1.000000" stroke="none" 
	d="
M3014.015137,188.000000 
	C3042.806641,188.000000 3071.101074,188.000000 3100.000000,188.000000 
	C3100.000000,190.169006 3100.000000,191.941940 3100.000000,193.714874 
	C3100.000000,270.370575 3100.621826,347.033508 3099.729248,423.678833 
	C3099.303223,460.270569 3089.415039,494.722015 3066.271729,524.079590 
	C3046.445801,549.228516 3020.481445,565.432556 2989.425293,572.785828 
	C2976.096191,575.941833 2962.313477,577.411499 2948.653564,578.864075 
	C2938.792480,579.912659 2928.755615,580.392151 2918.863525,579.868713 
	C2884.691406,578.060181 2851.990967,571.098328 2823.176758,551.089233 
	C2798.608643,534.028564 2781.526367,511.308899 2771.240234,483.425171 
	C2765.496338,467.854828 2761.716797,451.785339 2760.975586,435.105743 
	C2760.718994,429.331726 2760.047363,423.563904 2760.042480,417.792847 
	C2759.978271,343.470215 2760.000000,269.147491 2760.000000,194.824783 
	C2760.000000,192.828888 2760.000000,190.833008 2760.000000,188.418732 
	C2792.549805,188.418732 2824.927246,188.418732 2858.000000,188.418732 
	C2858.000000,190.235321 2858.000000,192.163300 2858.000000,194.091263 
	C2858.000000,270.413666 2857.457275,346.742126 2858.306152,423.055084 
	C2858.588379,448.413635 2870.247559,469.122101 2893.935303,480.856934 
	C2909.753174,488.693054 2926.803467,489.340485 2944.125732,487.136627 
	C2958.036377,485.366821 2970.282959,480.502777 2980.776611,470.890717 
	C2991.270264,461.278534 2997.383301,449.391022 2999.833496,435.743652 
	C3001.368164,427.196320 3001.892578,418.368134 3001.911621,409.663879 
	C3002.068115,338.007782 3002.000000,266.351227 3002.000000,194.694794 
	C3002.000000,192.709854 3002.000000,190.724915 3002.000000,188.000000 
	C3006.005859,188.000000 3009.762207,188.000000 3014.015137,188.000000 
z"/>
<path fill="#64A587" opacity="1.000000" stroke="none" 
	d="
M839.874512,498.030762 
	C849.056885,494.221069 855.821289,488.229279 860.632263,479.953217 
	C861.159424,479.046448 862.548340,478.088348 863.540833,478.084869 
	C891.848145,477.984863 920.155823,478.004272 948.971252,478.004272 
	C944.797363,497.195679 937.164062,514.158325 925.259033,529.388000 
	C911.871033,546.514587 894.984497,558.877380 875.427856,567.781982 
	C863.300171,573.303894 850.489319,576.776428 837.198242,577.945007 
	C826.021729,578.927612 814.763916,580.214294 803.596313,579.821960 
	C778.402039,578.936768 754.492493,573.144104 732.320129,560.261780 
	C708.832825,546.615417 691.122192,527.783691 678.085083,504.265808 
	C669.199585,488.237122 663.043518,471.159821 661.124207,452.915497 
	C659.743164,439.787811 658.738403,426.489899 659.215393,413.327698 
	C659.949219,393.077942 664.667542,373.550629 672.945923,354.876068 
	C681.583557,335.390991 693.864197,318.580963 709.898987,304.816833 
	C728.193665,289.112854 749.225952,278.234558 773.209229,274.090424 
	C782.733398,272.444672 792.442993,271.640961 802.104553,271.065125 
	C829.443481,269.435638 855.700806,273.669037 879.961060,287.028839 
	C901.146973,298.695587 918.198059,314.829620 930.831726,335.517303 
	C941.273743,352.616241 948.557617,371.078186 951.621216,390.791779 
	C953.590271,403.462433 953.423401,416.480804 953.946472,429.354218 
	C954.243042,436.653870 954.000000,443.975433 954.000000,451.795532 
	C885.987244,451.795532 818.266785,451.795532 749.970642,451.795532 
	C755.570618,475.259247 766.374329,493.503296 790.648499,500.182861 
	C800.669861,502.940430 810.948853,504.377441 821.372925,502.059082 
	C827.407104,500.717102 833.454285,499.433380 839.874512,498.030762 
M770.039795,360.451141 
	C758.394836,370.927216 753.035461,384.571869 749.887878,399.776672 
	C788.095276,399.776672 825.862854,399.776672 864.511719,399.776672 
	C862.232239,392.560059 860.581421,385.549561 857.839294,378.995667 
	C850.387573,361.185852 836.851135,350.369080 817.693726,348.186340 
	C800.793518,346.260742 784.459412,348.785950 770.039795,360.451141 
z"/>
<path fill="#64A587" opacity="1.000000" stroke="none" 
	d="
M2041.000000,569.000000 
	C2032.534302,569.000000 2024.568726,569.000000 2016.000000,569.000000 
	C2016.000000,566.665771 2016.000000,564.726013 2016.000000,562.786194 
	C2016.000000,508.290375 2016.067383,453.794464 2015.957397,399.298859 
	C2015.925903,383.664307 2008.986816,371.409912 1996.108398,362.706238 
	C1984.327637,354.744659 1961.533325,355.317963 1949.458374,362.942444 
	C1935.157959,371.972260 1929.034668,385.088348 1929.019165,401.479584 
	C1928.968384,455.308716 1929.000000,509.137970 1929.000000,562.967163 
	C1929.000000,564.772278 1929.000000,566.577454 1929.000000,568.685181 
	C1897.026367,568.685181 1865.431763,568.685181 1833.418213,568.685181 
	C1833.418213,473.115845 1833.418213,377.407410 1833.418213,281.349182 
	C1858.356689,281.349182 1883.402710,281.349182 1908.811401,281.349182 
	C1908.811401,303.729370 1908.811401,326.003082 1908.811401,347.501587 
	C1912.885864,337.697418 1916.412964,326.964203 1921.622925,317.121735 
	C1934.110718,293.529938 1953.833374,279.328918 1980.119263,273.879333 
	C1994.643311,270.868256 2009.385010,270.890015 2023.711548,272.357269 
	C2056.144531,275.678925 2081.163574,291.270844 2096.166260,321.332794 
	C2103.970215,336.969391 2108.545410,353.412628 2109.906982,370.685181 
	C2111.062988,385.354401 2111.836670,400.090790 2111.908691,414.801697 
	C2112.149902,463.963409 2112.000000,513.127014 2112.000000,562.289917 
	C2112.000000,564.276306 2112.000000,566.262634 2112.000000,569.000000 
	C2088.334473,569.000000 2064.917236,569.000000 2041.000000,569.000000 
z"/>
<path fill="#64A587" opacity="1.000000" stroke="none" 
	d="
M1018.018677,432.005219 
	C1002.180359,418.719238 991.925537,402.107361 989.313721,382.032959 
	C985.939026,356.094849 989.112427,331.326294 1007.106445,310.216034 
	C1020.200562,294.854248 1037.050903,286.077179 1055.731567,280.020569 
	C1079.400513,272.346588 1103.899780,271.809357 1128.299438,273.217316 
	C1154.392334,274.722931 1179.351074,281.036957 1201.624146,295.833710 
	C1223.920044,310.645691 1236.358887,331.534668 1240.902954,357.497345 
	C1241.692993,362.011169 1241.735229,366.655884 1242.161011,371.691132 
	C1240.371216,371.809692 1238.935425,371.986694 1237.499634,371.987671 
	C1212.501831,372.004639 1187.503784,371.940979 1162.506592,372.066864 
	C1158.970703,372.084686 1157.611816,371.204346 1156.543091,367.472809 
	C1153.349609,356.324432 1145.508423,348.694916 1134.941772,344.621246 
	C1120.481567,339.046539 1105.461060,338.265900 1090.583984,343.098358 
	C1084.035156,345.225586 1077.520264,348.060883 1074.997314,355.536621 
	C1071.856812,364.842346 1074.504639,372.951630 1083.475952,376.899872 
	C1090.857300,380.148315 1098.851929,382.488007 1106.810913,383.844147 
	C1127.144653,387.308899 1147.804932,389.061279 1167.970947,393.249908 
	C1190.474731,397.924072 1210.800415,408.084412 1227.072388,424.749817 
	C1238.688721,436.646912 1245.761475,451.134644 1248.023926,467.799408 
	C1249.907104,481.670105 1249.754761,495.444153 1245.967285,508.993622 
	C1243.022949,519.526855 1238.077515,529.033569 1231.042847,537.515808 
	C1214.077881,557.971313 1191.369629,568.268860 1166.225464,573.837952 
	C1156.025024,576.097229 1145.478394,576.994019 1135.036499,577.903320 
	C1125.806396,578.707153 1116.470337,579.326904 1107.237793,578.873657 
	C1081.896362,577.629456 1056.950195,574.067566 1033.919556,562.421692 
	C1011.198914,550.932678 994.052185,534.119934 985.437866,509.722870 
	C982.013062,500.023529 980.219238,489.883911 979.907593,479.000000 
	C981.948303,479.000000 983.405090,479.000000 984.861938,479.000000 
	C1009.693115,479.000031 1034.524414,479.038086 1059.355347,478.954926 
	C1062.695435,478.943726 1064.252930,479.473755 1065.440796,483.385132 
	C1068.941772,494.912720 1077.936401,501.722046 1088.661011,505.926208 
	C1107.272949,513.222229 1126.417603,512.647522 1145.388672,507.631561 
	C1152.617432,505.720245 1159.669434,502.529297 1162.812256,494.494629 
	C1166.200928,485.831970 1161.588745,475.097504 1151.764526,469.897614 
	C1142.746094,465.124207 1133.007812,463.200531 1123.065674,462.023621 
	C1098.038574,459.061035 1072.682373,457.965668 1048.720947,449.003357 
	C1037.766479,444.906097 1027.219727,439.997375 1018.018677,432.005219 
z"/>
<path fill="#64A587" opacity="1.000000" stroke="none" 
	d="
M1367.000000,281.000000 
	C1379.796143,281.000000 1392.092285,281.000000 1404.692383,281.000000 
	C1404.692383,377.085449 1404.692383,472.775269 1404.692383,568.732666 
	C1372.936279,568.732666 1341.348145,568.732666 1309.204346,568.732666 
	C1309.204346,496.387268 1309.204346,424.023071 1309.204346,351.083160 
	C1296.944702,351.083160 1285.225708,351.083160 1273.258545,351.083160 
	C1273.258545,327.583710 1273.258545,304.659943 1273.258545,281.000000 
	C1304.346924,281.000000 1335.423462,281.000000 1367.000000,281.000000 
z"/>
<path fill="#64A587" opacity="1.000000" stroke="none" 
	d="
M2625.470215,238.093567 
	C2620.701660,235.144547 2616.355957,232.190735 2612.102783,229.109375 
	C2595.457275,217.050247 2577.647705,207.133331 2558.464355,199.701675 
	C2556.780273,199.049240 2555.247314,198.006241 2553.318604,196.991882 
	C2548.019775,187.132416 2542.852051,177.615112 2540.721680,166.629196 
	C2537.433105,149.671417 2538.404053,133.256836 2544.989502,117.302132 
	C2547.207275,111.929413 2550.124268,106.845299 2552.853760,101.363655 
	C2572.500732,111.875465 2586.527832,126.239159 2594.377686,145.979202 
	C2602.113281,165.432678 2602.100830,185.376480 2596.291260,205.756989 
	C2610.599121,189.622070 2628.516846,180.109299 2649.489014,177.450455 
	C2670.333252,174.807861 2690.061523,178.939240 2707.909180,191.194855 
	C2698.237549,210.126038 2683.969727,223.707977 2664.630371,232.005402 
	C2652.222900,237.328659 2639.227051,238.551880 2625.470215,238.093567 
M2674.570557,200.152313 
	C2654.263916,207.318207 2633.440186,212.448853 2612.232178,216.107101 
	C2610.117920,216.471786 2608.109863,217.452026 2606.052490,218.146545 
	C2606.303955,218.870087 2606.555664,219.593613 2606.807129,220.317139 
	C2632.028320,217.300644 2656.085449,209.997986 2679.161377,198.967300 
	C2677.872070,199.285309 2676.582520,199.603302 2674.570557,200.152313 
M2561.211670,135.392166 
	C2560.931396,134.356918 2560.651123,133.321686 2560.370850,132.286453 
	C2560.184570,139.368484 2560.552490,146.307053 2562.177002,152.937759 
	C2565.910400,168.175354 2570.205811,183.277023 2574.441162,198.386780 
	C2574.803467,199.680542 2576.416260,200.623825 2577.448242,201.729889 
	C2577.612061,200.274353 2578.259033,198.666672 2577.856689,197.389603 
	C2576.112061,191.852966 2573.629395,186.522568 2572.205322,180.916489 
	C2568.425781,166.040634 2565.055420,151.060852 2561.211670,135.392166 
z"/>
<path fill="#64A587" opacity="1.000000" stroke="none" 
	d="
M1333.542358,164.236725 
	C1344.622070,162.693298 1355.221558,162.451248 1365.835571,164.944260 
	C1382.692993,168.903717 1392.999268,179.197189 1397.095703,195.960663 
	C1401.062988,212.195068 1399.533447,227.503067 1390.100586,241.691711 
	C1383.853271,251.088715 1374.575928,255.812759 1364.033447,257.786957 
	C1352.299561,259.984222 1340.277344,260.070160 1328.741089,256.727600 
	C1312.260864,251.952621 1302.418945,240.336945 1299.178467,223.740616 
	C1296.089722,207.921814 1297.740356,192.734055 1307.879150,179.210739 
	C1314.311768,170.630753 1323.261597,166.846664 1333.542358,164.236725 
z"/>
<path fill="#FFFFFF" opacity="1.000000" stroke="none" 
	d="
M2460.718750,392.219910 
	C2472.421631,402.866638 2476.875000,416.159546 2476.995850,431.231567 
	C2477.080322,441.773895 2477.163330,452.247803 2474.109863,462.584625 
	C2470.495361,474.820801 2463.542236,484.464386 2452.780273,490.950439 
	C2435.031494,501.647064 2416.592529,502.192780 2397.984131,492.980347 
	C2388.082764,488.078461 2381.937744,479.484375 2377.175781,470.053375 
	C2371.705566,459.219543 2369.678223,447.347412 2370.091309,435.285736 
	C2370.632324,419.487152 2375.327881,404.930328 2386.397949,393.265717 
	C2394.546875,384.678986 2405.197754,380.231323 2416.851318,379.118652 
	C2432.966797,377.579987 2447.854980,381.141418 2460.718750,392.219910 
z"/>
<path fill="#FFFFFF" opacity="1.000000" stroke="none" 
	d="
M377.175903,479.999695 
	C372.745270,480.722260 372.976593,478.131378 372.979248,475.486847 
	C373.011292,443.510590 373.000031,411.534332 373.000000,379.558044 
	C373.000000,347.415222 373.000000,315.272369 373.000000,283.129547 
	C373.000000,281.317566 373.000000,279.505585 373.000000,277.000000 
	C375.060364,277.000000 376.819275,277.000000 378.578156,277.000000 
	C397.230988,277.000000 415.914917,276.318604 434.528992,277.167786 
	C459.292450,278.297546 482.124298,285.071167 501.111877,302.422638 
	C515.728394,315.779724 523.723999,332.459167 526.739685,351.359924 
	C528.757507,364.006348 529.617737,377.132385 528.729187,389.885895 
	C526.910767,415.984985 517.130066,438.916992 496.953369,456.516693 
	C483.105255,468.596100 466.677399,475.105194 448.720001,477.982422 
	C425.128998,481.762329 401.344666,479.330566 377.175903,479.999695 
z"/>
<path fill="#FFFFFF" opacity="1.000000" stroke="none" 
	d="
M3733.000000,267.000000 
	C3746.345459,267.048737 3759.265137,266.300903 3771.657959,270.877167 
	C3791.142578,278.072235 3802.048584,291.987274 3805.076904,312.516968 
	C3806.824463,324.365784 3805.989502,335.706116 3801.120361,346.723114 
	C3794.660889,361.340057 3783.598145,370.736969 3768.349365,374.839172 
	C3762.559326,376.396759 3756.337646,376.834320 3750.302246,376.907440 
	C3730.150391,377.151733 3709.993408,377.000000 3689.838379,377.000000 
	C3688.054199,377.000000 3686.270264,377.000000 3684.247070,377.000000 
	C3684.247070,340.235626 3684.247070,303.987732 3684.247070,267.000000 
	C3700.341064,267.000000 3716.420654,267.000000 3733.000000,267.000000 
z"/>
<path fill="#FFFFFF" opacity="1.000000" stroke="none" 
	d="
M1583.797852,484.274963 
	C1565.122192,473.116058 1556.620850,456.312836 1553.895508,435.649475 
	C1551.961914,420.988647 1552.918213,406.705902 1558.030396,392.938263 
	C1566.075195,371.272278 1580.902466,357.051971 1604.311279,352.978302 
	C1627.324097,348.973541 1646.947388,355.532288 1662.842773,372.486908 
	C1670.532959,380.689453 1675.037842,390.790009 1675.908569,402.062469 
	C1676.685425,412.120148 1677.224365,422.258667 1676.873047,432.326782 
	C1676.307251,448.541809 1671.276733,463.381439 1659.412720,474.945068 
	C1648.078979,485.991516 1634.423340,491.826385 1618.266357,492.132446 
	C1606.115234,492.362640 1594.732666,490.386414 1583.797852,484.274963 
z"/>
<path fill="#FFFFFF" opacity="1.000000" stroke="none" 
	d="
M770.302307,360.204285 
	C784.459412,348.785950 800.793518,346.260742 817.693726,348.186340 
	C836.851135,350.369080 850.387573,361.185852 857.839294,378.995667 
	C860.581421,385.549561 862.232239,392.560059 864.511719,399.776672 
	C825.862854,399.776672 788.095276,399.776672 749.887878,399.776672 
	C753.035461,384.571869 758.394836,370.927216 770.302307,360.204285 
z"/>
<path fill="#BFD8BE" opacity="1.000000" stroke="none" 
	d="
M2674.931885,200.036804 
	C2676.582520,199.603302 2677.872070,199.285309 2679.161377,198.967300 
	C2656.085449,209.997986 2632.028320,217.300644 2606.807129,220.317139 
	C2606.555664,219.593613 2606.303955,218.870087 2606.052490,218.146545 
	C2608.109863,217.452026 2610.117920,216.471786 2612.232178,216.107101 
	C2633.440186,212.448853 2654.263916,207.318207 2674.931885,200.036804 
z"/>
<path fill="#BED8BE" opacity="1.000000" stroke="none" 
	d="
M2561.367188,135.757294 
	C2565.055420,151.060852 2568.425781,166.040634 2572.205322,180.916489 
	C2573.629395,186.522568 2576.112061,191.852966 2577.856689,197.389603 
	C2578.259033,198.666672 2577.612061,200.274353 2577.448242,201.729904 
	C2576.416260,200.623825 2574.803467,199.680542 2574.441162,198.386780 
	C2570.205811,183.277023 2565.910400,168.175354 2562.177002,152.937759 
	C2560.552490,146.307053 2560.184570,139.368484 2560.370850,132.286453 
	C2560.651123,133.321686 2560.931396,134.356918 2561.367188,135.757294 
z"/>
</svg>