<svg version="1.1" id="Layer_1" xmlns="http://www.w3.org/2000/svg" xmlns:xlink="http://www.w3.org/1999/xlink" x="0px" y="0px"
	 width="100%" viewBox="0 0 2084 2084" enable-background="new 0 0 2084 2084" xml:space="preserve">
<path fill="#FFFFFF" opacity="1.000000" stroke="none" 
	d="
M1020.000000,2086.000000 
	C680.040527,2086.000000 341.081116,2086.000000 2.060830,2086.000000 
	C2.060830,1391.457031 2.060830,696.914001 2.060830,2.185481 
	C696.459839,2.185481 1390.919678,2.185481 2085.689941,2.185481 
	C2085.689941,696.666565 2085.689941,1391.333252 2085.689941,2086.000000 
	C1730.913086,2086.000000 1375.956543,2086.000000 1020.000000,2086.000000 
M1586.136230,834.137390 
	C1586.136230,834.137390 1585.859863,833.878601 1585.778320,832.255798 
	C1585.955444,831.274231 1586.086914,830.281860 1586.316162,829.312622 
	C1597.404175,782.418640 1586.860840,741.758057 1551.110474,708.609192 
	C1543.408203,701.467468 1535.153809,694.768066 1524.102173,691.637451 
	C1509.367310,714.119080 1503.176025,738.444275 1504.800903,764.631042 
	C1505.815063,780.978943 1510.128174,796.661377 1517.706665,811.342529 
	C1518.361816,812.611816 1517.960083,814.426697 1516.569336,816.143188 
	C1475.506836,797.246521 1431.989136,788.682495 1387.181396,786.451355 
	C1363.611938,785.277649 1340.041626,786.709900 1316.533081,789.566040 
	C1271.095703,795.086609 1228.072266,808.002441 1188.004883,830.213928 
	C1122.988892,866.255798 1076.701782,919.073669 1048.182007,987.562988 
	C1033.069458,1023.855164 1025.709351,1061.829590 1024.051636,1101.026733 
	C1022.326355,1141.824707 1025.573486,1182.137085 1036.691406,1221.505249 
	C1050.049805,1268.807007 1073.258667,1310.737061 1108.247681,1345.525391 
	C1139.902344,1376.998291 1177.385620,1399.368652 1219.530396,1414.033936 
	C1278.146606,1434.430786 1338.473877,1437.674683 1399.705933,1432.420776 
	C1446.423706,1428.412231 1489.007935,1412.473145 1528.708618,1388.113037 
	C1531.731567,1386.258057 1534.527222,1384.032471 1538.043457,1381.543945 
	C1528.144775,1365.230469 1518.735840,1349.723877 1509.070435,1333.794678 
	C1506.732422,1335.186768 1505.337891,1335.996338 1503.963135,1336.838501 
	C1458.608643,1364.624390 1409.635864,1379.346313 1356.154053,1377.660400 
	C1348.201050,1377.409790 1340.259277,1376.781860 1332.314819,1376.288208 
	C1292.995728,1373.846069 1255.596069,1364.258057 1220.396606,1346.362061 
	C1164.549805,1317.968750 1126.358032,1274.015625 1106.352051,1214.845825 
	C1090.297485,1167.362549 1088.313599,1118.499146 1095.593262,1069.111206 
	C1104.841553,1006.367249 1130.894287,952.448242 1178.729980,909.809814 
	C1195.516968,894.846802 1214.160156,882.714050 1234.242065,872.848694 
	C1268.714722,855.913879 1305.543823,847.237793 1343.619629,844.508179 
	C1381.998413,841.756836 1420.071533,844.619629 1457.098633,855.997498 
	C1518.355957,874.820923 1564.729126,911.659119 1593.052490,969.792847 
	C1611.501221,1007.658875 1617.167480,1048.279053 1617.610474,1089.871582 
	C1617.677246,1096.146729 1616.644897,1102.426758 1616.302612,1108.714233 
	C1615.012695,1132.410156 1611.459351,1155.639282 1602.411987,1177.771362 
	C1595.794067,1193.960205 1587.357910,1208.861206 1573.275146,1219.914795 
	C1560.270142,1230.122437 1545.606812,1234.122192 1529.281250,1231.901489 
	C1515.383545,1230.011230 1506.814331,1221.421631 1503.596924,1207.728149 
	C1501.069092,1196.968994 1502.497559,1186.518433 1504.881958,1176.164185 
	C1518.827026,1115.607544 1533.001465,1055.103516 1547.047607,994.570068 
	C1550.716919,978.756775 1554.205078,962.901306 1557.947021,946.308472 
	C1519.627075,946.308472 1482.117065,946.308472 1444.284180,946.308472 
	C1441.590698,956.828491 1438.928711,967.109680 1436.330444,977.406921 
	C1433.752319,987.623779 1432.588135,998.270386 1427.588379,1009.612732 
	C1426.090210,1005.491150 1425.236572,1003.344238 1424.524048,1001.151550 
	C1416.166626,975.434570 1398.876343,957.946838 1374.272705,947.675415 
	C1355.600342,939.880188 1336.209595,937.256836 1315.804443,939.346436 
	C1300.064575,940.958252 1284.884277,943.878723 1270.416138,950.047913 
	C1236.272217,964.606934 1211.899658,989.841919 1193.521973,1021.431396 
	C1172.647827,1057.312134 1162.777222,1096.274902 1161.762451,1137.549072 
	C1161.061035,1166.077759 1164.475952,1194.096680 1176.528564,1220.289551 
	C1200.233643,1271.806519 1242.573120,1292.700073 1293.318848,1287.190430 
	C1338.059570,1282.332520 1370.737305,1257.398804 1393.055542,1218.631226 
	C1394.271118,1216.520020 1395.632935,1214.493042 1397.320435,1211.798096 
	C1398.205811,1214.782959 1398.863159,1216.666504 1399.303345,1218.599487 
	C1399.595825,1219.884521 1399.545288,1221.244019 1399.703491,1222.563599 
	C1403.122803,1251.085327 1417.438477,1272.619629 1442.691895,1285.922974 
	C1466.575806,1298.504517 1492.436157,1301.206787 1519.193115,1298.446777 
	C1567.070190,1293.508301 1604.674927,1270.593140 1633.632202,1233.125610 
	C1661.006836,1197.705688 1672.417480,1156.199585 1675.493408,1112.344971 
	C1677.236450,1087.491211 1677.244141,1062.518921 1674.418213,1037.583740 
	C1669.267334,992.132324 1654.898315,950.088135 1629.471924,912.016235 
	C1622.120972,901.009338 1613.848022,890.618103 1607.679810,879.374329 
	C1617.254395,880.163635 1626.838135,881.723389 1636.402100,881.610535 
	C1680.539551,881.089600 1713.755127,861.015503 1737.125610,824.010681 
	C1738.640503,821.612061 1739.471069,818.781311 1740.682373,816.008545 
	C1738.082886,814.121399 1736.337036,812.583435 1734.357300,811.456482 
	C1688.820190,785.536682 1629.619141,792.714539 1593.373779,829.121643 
	C1591.338867,831.165588 1588.744385,832.652466 1586.136230,834.137390 
M944.283203,1253.000000 
	C944.283203,1035.125732 944.283203,817.251404 944.283203,599.583130 
	C932.101807,597.426453 803.982300,597.867798 795.976929,600.159485 
	C795.976929,704.565430 795.976929,809.252197 795.976929,913.938965 
	C793.085815,911.711670 791.603882,909.218689 790.141663,906.714355 
	C765.431641,864.391724 729.972412,836.108337 681.887207,824.911194 
	C656.431030,818.983459 630.649048,818.594055 604.609619,821.515808 
	C577.792542,824.524963 552.388672,831.954651 528.534485,844.102234 
	C483.564850,867.002625 451.682404,902.917114 429.515778,947.657837 
	C411.712158,983.592285 403.003693,1022.176514 400.510529,1061.938477 
	C398.470703,1094.469727 398.727692,1127.086548 403.791840,1159.503906 
	C409.230103,1194.316406 419.069244,1227.619385 436.401764,1258.444824 
	C458.326904,1297.438232 488.289368,1328.219116 528.765503,1348.182739 
	C570.362366,1368.698975 614.306458,1374.383057 659.859131,1368.236450 
	C721.229553,1359.955322 767.440002,1328.504395 798.997864,1275.346802 
	C800.949463,1272.059448 802.744019,1268.678833 805.764099,1263.282471 
	C807.885071,1296.725586 809.848450,1327.684814 811.844360,1359.155762 
	C856.133667,1359.155762 899.612183,1359.155762 944.283447,1359.155762 
	C944.283447,1324.111450 944.283447,1289.555786 944.283203,1253.000000 
M1276.829712,648.199097 
	C1261.685425,633.442383 1244.478638,621.481750 1225.434204,612.518250 
	C1194.313477,597.870972 1161.593506,591.704224 1126.969116,593.476685 
	C1083.158691,595.719360 1044.829590,611.020935 1010.848145,638.070862 
	C1002.347229,644.837769 993.960693,651.884827 987.669739,660.825928 
	C1061.351440,752.346436 1214.652710,752.913513 1288.802612,660.508423 
	C1285.189331,656.785095 1281.512085,652.995850 1276.829712,648.199097 
z"/>
<path fill="#65A587" opacity="1.000000" stroke="none" 
	d="
M944.283325,1254.000000 
	C944.283447,1289.555786 944.283447,1324.111450 944.283447,1359.155762 
	C899.612183,1359.155762 856.133667,1359.155762 811.844360,1359.155762 
	C809.848450,1327.684814 807.885071,1296.725586 805.764099,1263.282471 
	C802.744019,1268.678833 800.949463,1272.059448 798.997864,1275.346802 
	C767.440002,1328.504395 721.229553,1359.955322 659.859131,1368.236450 
	C614.306458,1374.383057 570.362366,1368.698975 528.765503,1348.182739 
	C488.289368,1328.219116 458.326904,1297.438232 436.401764,1258.444824 
	C419.069244,1227.619385 409.230103,1194.316406 403.791840,1159.503906 
	C398.727692,1127.086548 398.470703,1094.469727 400.510529,1061.938477 
	C403.003693,1022.176514 411.712158,983.592285 429.515778,947.657837 
	C451.682404,902.917114 483.564850,867.002625 528.534485,844.102234 
	C552.388672,831.954651 577.792542,824.524963 604.609619,821.515808 
	C630.649048,818.594055 656.431030,818.983459 681.887207,824.911194 
	C729.972412,836.108337 765.431641,864.391724 790.141663,906.714355 
	C791.603882,909.218689 793.085815,911.711670 795.976929,913.938965 
	C795.976929,809.252197 795.976929,704.565430 795.976929,600.159485 
	C803.982300,597.867798 932.101807,597.426453 944.283203,599.583130 
	C944.283203,817.251404 944.283203,1035.125732 944.283325,1254.000000 
M547.718750,1098.992676 
	C546.960693,1124.473389 550.106079,1149.465454 557.944397,1173.723755 
	C568.861877,1207.511475 588.537720,1234.145386 621.802551,1248.970093 
	C642.735962,1258.299194 664.950195,1260.001953 687.367188,1257.619263 
	C717.569641,1254.409058 742.297607,1240.729980 761.070190,1216.588501 
	C775.439514,1198.109497 784.106995,1177.026489 789.805664,1154.558105 
	C796.164673,1129.486328 796.799194,1103.925903 796.295166,1078.261108 
	C795.841064,1055.136719 792.367249,1032.474976 783.952026,1010.932617 
	C765.333679,963.271484 731.869202,934.454773 679.263062,931.989075 
	C648.381531,930.541565 619.863953,938.080872 595.601074,958.331116 
	C575.705444,974.936096 564.063171,996.837708 556.650269,1021.066956 
	C549.097046,1045.755005 546.755554,1071.222168 547.718750,1098.992676 
z"/>
<path fill="#F96F47" opacity="1.000000" stroke="none" 
	d="
M1605.997803,879.944641 
	C1613.848022,890.618103 1622.120972,901.009338 1629.471924,912.016235 
	C1654.898315,950.088135 1669.267334,992.132324 1674.418213,1037.583740 
	C1677.244141,1062.518921 1677.236450,1087.491211 1675.493408,1112.344971 
	C1672.417480,1156.199585 1661.006836,1197.705688 1633.632202,1233.125610 
	C1604.674927,1270.593140 1567.070190,1293.508301 1519.193115,1298.446777 
	C1492.436157,1301.206787 1466.575806,1298.504517 1442.691895,1285.922974 
	C1417.438477,1272.619629 1403.122803,1251.085327 1399.703491,1222.563599 
	C1399.545288,1221.244019 1399.595825,1219.884521 1399.303345,1218.599487 
	C1398.863159,1216.666504 1398.205811,1214.782959 1397.320435,1211.798096 
	C1395.632935,1214.493042 1394.271118,1216.520020 1393.055542,1218.631226 
	C1370.737305,1257.398804 1338.059570,1282.332520 1293.318848,1287.190430 
	C1242.573120,1292.700073 1200.233643,1271.806519 1176.528564,1220.289551 
	C1164.475952,1194.096680 1161.061035,1166.077759 1161.762451,1137.549072 
	C1162.777222,1096.274902 1172.647827,1057.312134 1193.521973,1021.431396 
	C1211.899658,989.841919 1236.272217,964.606934 1270.416138,950.047913 
	C1284.884277,943.878723 1300.064575,940.958252 1315.804443,939.346436 
	C1336.209595,937.256836 1355.600342,939.880188 1374.272705,947.675415 
	C1398.876343,957.946838 1416.166626,975.434570 1424.524048,1001.151550 
	C1425.236572,1003.344238 1426.090210,1005.491150 1427.588379,1009.612732 
	C1432.588135,998.270386 1433.752319,987.623779 1436.330444,977.406921 
	C1438.928711,967.109680 1441.590698,956.828491 1444.284180,946.308472 
	C1482.117065,946.308472 1519.627075,946.308472 1557.947021,946.308472 
	C1554.205078,962.901306 1550.716919,978.756775 1547.047607,994.570068 
	C1533.001465,1055.103516 1518.827026,1115.607544 1504.881958,1176.164185 
	C1502.497559,1186.518433 1501.069092,1196.968994 1503.596924,1207.728149 
	C1506.814331,1221.421631 1515.383545,1230.011230 1529.281250,1231.901489 
	C1545.606812,1234.122192 1560.270142,1230.122437 1573.275146,1219.914795 
	C1587.357910,1208.861206 1595.794067,1193.960205 1602.411987,1177.771362 
	C1611.459351,1155.639282 1615.012695,1132.410156 1616.302612,1108.714233 
	C1616.644897,1102.426758 1617.677246,1096.146729 1617.610474,1089.871582 
	C1617.167480,1048.279053 1611.501221,1007.658875 1593.052490,969.792847 
	C1564.729126,911.659119 1518.355957,874.820923 1457.098633,855.997498 
	C1420.071533,844.619629 1381.998413,841.756836 1343.619629,844.508179 
	C1305.543823,847.237793 1268.714722,855.913879 1234.242065,872.848694 
	C1214.160156,882.714050 1195.516968,894.846802 1178.729980,909.809814 
	C1130.894287,952.448242 1104.841553,1006.367249 1095.593262,1069.111206 
	C1088.313599,1118.499146 1090.297485,1167.362549 1106.352051,1214.845825 
	C1126.358032,1274.015625 1164.549805,1317.968750 1220.396606,1346.362061 
	C1255.596069,1364.258057 1292.995728,1373.846069 1332.314819,1376.288208 
	C1340.259277,1376.781860 1348.201050,1377.409790 1356.154053,1377.660400 
	C1409.635864,1379.346313 1458.608643,1364.624390 1503.963135,1336.838501 
	C1505.337891,1335.996338 1506.732422,1335.186768 1509.070435,1333.794678 
	C1518.735840,1349.723877 1528.144775,1365.230469 1538.043457,1381.543945 
	C1534.527222,1384.032471 1531.731567,1386.258057 1528.708618,1388.113037 
	C1489.007935,1412.473145 1446.423706,1428.412231 1399.705933,1432.420776 
	C1338.473877,1437.674683 1278.146606,1434.430786 1219.530396,1414.033936 
	C1177.385620,1399.368652 1139.902344,1376.998291 1108.247681,1345.525391 
	C1073.258667,1310.737061 1050.049805,1268.807007 1036.691406,1221.505249 
	C1025.573486,1182.137085 1022.326355,1141.824707 1024.051636,1101.026733 
	C1025.709351,1061.829590 1033.069458,1023.855164 1048.182007,987.562988 
	C1076.701782,919.073669 1122.988892,866.255798 1188.004883,830.213928 
	C1228.072266,808.002441 1271.095703,795.086609 1316.533081,789.566040 
	C1340.041626,786.709900 1363.611938,785.277649 1387.181396,786.451355 
	C1431.989136,788.682495 1475.506836,797.246521 1517.284424,816.030396 
	C1517.999512,815.917542 1517.913696,815.943481 1518.182861,816.571167 
	C1519.320923,817.463196 1520.189697,817.727478 1521.531494,818.410583 
	C1525.122070,820.694885 1528.322144,822.436768 1531.343994,824.446533 
	C1547.329712,835.078125 1563.567871,845.366333 1579.111572,856.612427 
	C1587.921753,862.986755 1595.567749,870.970154 1603.969238,878.713135 
	C1604.822754,879.492126 1605.444946,879.786804 1606.075439,880.033813 
	C1606.083862,879.986206 1605.997803,879.944641 1605.997803,879.944641 
M1372.416626,1183.432129 
	C1376.237061,1178.406494 1380.632935,1173.715332 1383.782471,1168.299438 
	C1401.432007,1137.948486 1410.315063,1105.304565 1406.112427,1070.144653 
	C1401.793091,1034.009033 1375.023315,1018.501282 1342.077271,1025.168945 
	C1325.872925,1028.448364 1313.897827,1038.515381 1304.304321,1051.251587 
	C1280.646484,1082.659424 1271.193115,1118.120361 1276.187378,1157.135132 
	C1279.377686,1182.056641 1295.864502,1199.184326 1320.468506,1203.179443 
	C1340.745117,1206.471680 1357.713623,1199.414185 1372.416626,1183.432129 
z"/>
<path fill="#66A688" opacity="1.000000" stroke="none" 
	d="
M1277.332275,648.702881 
	C1281.512085,652.995850 1285.189331,656.785095 1288.802612,660.508423 
	C1214.652710,752.913513 1061.351440,752.346436 987.669739,660.825928 
	C993.960693,651.884827 1002.347229,644.837769 1010.848145,638.070862 
	C1044.829590,611.020935 1083.158691,595.719360 1126.969116,593.476685 
	C1161.593506,591.704224 1194.313477,597.870972 1225.434204,612.518250 
	C1244.478638,621.481750 1261.685425,633.442383 1277.332275,648.702881 
M1110.719849,662.174072 
	C1093.180298,660.893677 1075.637573,659.656128 1058.102783,658.314148 
	C1049.833496,657.681274 1041.588989,656.589050 1033.312012,656.284119 
	C1031.196167,656.206238 1027.576416,657.938293 1027.135498,659.528687 
	C1026.216919,662.841248 1029.456421,663.700684 1032.241455,663.967285 
	C1053.040894,665.958740 1073.822388,669.263977 1094.649414,669.587463 
	C1128.548340,670.113953 1162.488770,669.030640 1196.389038,667.929199 
	C1212.199585,667.415527 1227.957031,665.268494 1243.738647,663.861816 
	C1199.968140,663.885315 1156.282349,665.901184 1110.719849,662.174072 
z"/>
<path fill="#67A689" opacity="1.000000" stroke="none" 
	d="
M1603.738037,878.228821 
	C1595.567749,870.970154 1587.921753,862.986755 1579.111572,856.612427 
	C1563.567871,845.366333 1547.329712,835.078125 1531.343994,824.446533 
	C1528.322144,822.436768 1525.122070,820.694885 1521.184082,817.786133 
	C1519.547241,816.476379 1518.730469,816.209961 1517.913696,815.943481 
	C1517.913696,815.943481 1517.999512,815.917542 1518.024414,815.952820 
	C1517.960083,814.426697 1518.361816,812.611816 1517.706665,811.342529 
	C1510.128174,796.661377 1505.815063,780.978943 1504.800903,764.631042 
	C1503.176025,738.444275 1509.367310,714.119080 1524.102173,691.637451 
	C1535.153809,694.768066 1543.408203,701.467468 1551.110474,708.609192 
	C1586.860840,741.758057 1597.404175,782.418640 1586.316162,829.312622 
	C1586.086914,830.281860 1585.955444,831.274231 1585.420410,833.247314 
	C1585.163696,834.709290 1585.265015,835.179688 1585.366333,835.650146 
	C1585.714355,835.232971 1586.062378,834.815796 1586.410400,834.398621 
	C1588.744385,832.652466 1591.338867,831.165588 1593.373779,829.121643 
	C1629.619141,792.714539 1688.820190,785.536682 1734.357300,811.456482 
	C1736.337036,812.583435 1738.082886,814.121399 1740.682373,816.008545 
	C1739.471069,818.781311 1738.640503,821.612061 1737.125610,824.010681 
	C1713.755127,861.015503 1680.539551,881.089600 1636.402100,881.610535 
	C1626.838135,881.723389 1617.254395,880.163635 1606.838867,879.659485 
	C1605.997803,879.944641 1606.083862,879.986206 1606.046387,879.438354 
	C1605.252075,878.669922 1604.494995,878.449402 1603.738037,878.228821 
M1560.045898,828.358826 
	C1548.673950,792.957458 1539.192139,757.075928 1532.849976,720.344482 
	C1532.226318,722.751831 1531.979736,725.084778 1532.264160,727.351013 
	C1535.484863,753.013672 1539.376587,778.560181 1546.888672,803.389832 
	C1549.388916,811.653992 1552.231201,819.820801 1555.161377,827.943970 
	C1555.803467,829.723999 1556.669312,833.227478 1560.045898,828.358826 
M1622.535156,853.816101 
	C1646.513062,848.007385 1670.486450,842.184937 1692.766113,831.056152 
	C1690.709106,830.583679 1688.872803,830.895996 1687.084717,831.384705 
	C1671.727173,835.581787 1656.455933,840.125610 1641.002686,843.931335 
	C1628.466187,847.018799 1615.703125,849.179932 1603.072388,851.899414 
	C1601.564209,852.224121 1600.255737,853.476318 1597.704468,854.973633 
	C1606.653198,857.439941 1613.713501,855.243225 1622.535156,853.816101 
M1697.527954,828.448792 
	C1697.656738,828.811462 1697.785522,829.174133 1697.914307,829.536804 
	C1698.043091,829.163269 1698.171875,828.789795 1697.527954,828.448792 
z"/>
<path fill="#FEFFFF" opacity="1.000000" stroke="none" 
	d="
M547.718628,1097.994629 
	C546.755554,1071.222168 549.097046,1045.755005 556.650269,1021.066956 
	C564.063171,996.837708 575.705444,974.936096 595.601074,958.331116 
	C619.863953,938.080872 648.381531,930.541565 679.263062,931.989075 
	C731.869202,934.454773 765.333679,963.271484 783.952026,1010.932617 
	C792.367249,1032.474976 795.841064,1055.136719 796.295166,1078.261108 
	C796.799194,1103.925903 796.164673,1129.486328 789.805664,1154.558105 
	C784.106995,1177.026489 775.439514,1198.109497 761.070190,1216.588501 
	C742.297607,1240.729980 717.569641,1254.409058 687.367188,1257.619263 
	C664.950195,1260.001953 642.735962,1258.299194 621.802551,1248.970093 
	C588.537720,1234.145386 568.861877,1207.511475 557.944397,1173.723755 
	C550.106079,1149.465454 546.960693,1124.473389 547.718628,1097.994629 
z"/>
<path fill="#FFFEFE" opacity="1.000000" stroke="none" 
	d="
M1372.048828,1184.043335 
	C1357.713623,1199.414185 1340.745117,1206.471680 1320.468506,1203.179443 
	C1295.864502,1199.184326 1279.377686,1182.056641 1276.187378,1157.135132 
	C1271.193115,1118.120361 1280.646484,1082.659424 1304.304321,1051.251587 
	C1313.897827,1038.515381 1325.872925,1028.448364 1342.077271,1025.168945 
	C1375.023315,1018.501282 1401.793091,1034.009033 1406.112427,1070.144653 
	C1410.315063,1105.304565 1401.432007,1137.948486 1383.782471,1168.299438 
	C1380.632935,1173.715332 1376.237061,1178.406494 1372.048828,1184.043335 
z"/>
<path fill="#FFFFFF" opacity="1.000000" stroke="none" 
	d="
M1518.182861,816.571167 
	C1518.730469,816.209961 1519.547241,816.476379 1520.711304,817.367310 
	C1520.189697,817.727478 1519.320923,817.463196 1518.182861,816.571167 
z"/>
<path fill="#FFFFFF" opacity="1.000000" stroke="none" 
	d="
M1603.969238,878.713135 
	C1604.494995,878.449402 1605.252075,878.669922 1606.038086,879.485962 
	C1605.444946,879.786804 1604.822754,879.492126 1603.969238,878.713135 
z"/>
<path fill="#BAD5BB" opacity="1.000000" stroke="none" 
	d="
M1111.673706,662.197327 
	C1156.282349,665.901184 1199.968140,663.885315 1243.738647,663.861816 
	C1227.957031,665.268494 1212.199585,667.415527 1196.389038,667.929199 
	C1162.488770,669.030640 1128.548340,670.113953 1094.649414,669.587463 
	C1073.822388,669.263977 1053.040894,665.958740 1032.241455,663.967285 
	C1029.456421,663.700684 1026.216919,662.841248 1027.135498,659.528687 
	C1027.576416,657.938293 1031.196167,656.206238 1033.312012,656.284119 
	C1041.588989,656.589050 1049.833496,657.681274 1058.102783,658.314148 
	C1075.637573,659.656128 1093.180298,660.893677 1111.673706,662.197327 
z"/>
<path fill="#B4D2B7" opacity="1.000000" stroke="none" 
	d="
M1559.930420,829.088257 
	C1556.669312,833.227478 1555.803467,829.723999 1555.161377,827.943970 
	C1552.231201,819.820801 1549.388916,811.653992 1546.888672,803.389832 
	C1539.376587,778.560181 1535.484863,753.013672 1532.264160,727.351013 
	C1531.979736,725.084778 1532.226318,722.751831 1532.849976,720.344482 
	C1539.192139,757.075928 1548.673950,792.957458 1559.930420,829.088257 
z"/>
<path fill="#B3D1B7" opacity="1.000000" stroke="none" 
	d="
M1621.679565,853.894165 
	C1613.713501,855.243225 1606.653198,857.439941 1597.704468,854.973633 
	C1600.255737,853.476318 1601.564209,852.224121 1603.072388,851.899414 
	C1615.703125,849.179932 1628.466187,847.018799 1641.002686,843.931335 
	C1656.455933,840.125610 1671.727173,835.581787 1687.084717,831.384705 
	C1688.872803,830.895996 1690.709106,830.583679 1692.766113,831.056152 
	C1670.486450,842.184937 1646.513062,848.007385 1621.679565,853.894165 
z"/>
<path fill="#B3D1B7" opacity="1.000000" stroke="none" 
	d="
M1697.914307,828.432556 
	C1698.171875,828.789795 1698.043091,829.163269 1697.914307,829.536804 
	C1697.785522,829.174133 1697.656738,828.811462 1697.914307,828.432556 
z"/>
<path fill="#FFFFFF" opacity="1.000000" stroke="none" 
	d="
M1586.273315,834.268005 
	C1586.062378,834.815796 1585.714355,835.232971 1585.366333,835.650146 
	C1585.265015,835.179688 1585.163696,834.709290 1585.461182,834.058716 
	C1585.859863,833.878601 1586.136230,834.137390 1586.273315,834.268005 
z"/>
</svg>