<?xml version="1.0" encoding="UTF-8"?>
<svg id="Layer_1" data-name="Layer 1" xmlns="http://www.w3.org/2000/svg" viewBox="0 0 1682.82 274.73">
  <defs>
    <style>
      .cls-1 {
        fill: #f96e46;
      }

      .cls-1, .cls-2, .cls-3, .cls-4 {
        stroke-width: 0px;
      }

      .cls-2 {
        fill: #bed8be;
      }

      .cls-3 {
        fill: #bfd8be;
      }

      .cls-4 {
        fill: #64a587;
      }
    </style>
  </defs>
  <path class="cls-1" d="M1082.54,63.01c2.63,2.53,5.34,4.99,7.89,7.62,9.17,9.44,15.97,20.4,20.69,32.68,3.15,8.2,5.31,16.65,5.93,25.4.54,7.6,1.18,15.26.85,22.85-.57,12.81-3.14,25.3-9.16,36.77-5.4,10.28-12.92,18.6-23.72,23.5-4.9,2.22-10.02,3.71-15.42,4.04-3.57.22-7.17.61-10.73.42-13.08-.69-24.08-5.58-31.55-16.79-1.78-2.68-3-5.73-4.22-8.11-2.92,3.75-5.8,8.06-9.29,11.81-5.67,6.11-13,9.51-21.16,10.76-4.79.73-9.73,1.21-14.54.9-11.04-.73-21.19-4.16-29.87-11.39-10.19-8.49-16.09-19.33-18.67-32.24-1.53-7.63-1.6-15.32-1.26-22.99.36-8.32,2.01-16.48,5.72-24.02,7.15-14.53,18.68-23.76,34.55-26.99,11.18-2.28,22.35-1.63,32.87,3.29,10.9,5.1,18.25,13.63,23.07,24.7v-23.85h30.86v2.66c0,23.19,0,46.37,0,69.56,0,5.7,3.36,10.43,7.77,10.98,6.56.81,12.43-2.34,15.56-8.39,2.66-5.14,4.34-10.61,4.73-16.37.48-7.07,1.16-14.18.83-21.23-.45-9.8-2.44-19.37-6.65-28.42-3.55-7.64-8.11-14.53-14.13-20.34-7.41-7.15-16-12.7-25.77-16.01-6.95-2.35-14.1-4.29-21.3-5.66-8.69-1.66-17.59-1.97-26.42-1.44-11,.65-21.89,2.27-32.36,5.92-9.62,3.35-18.5,8.01-26.33,14.63-13.58,11.49-21.78,26.1-25.16,43.42-1.17,5.98-1.83,12.1-2.26,18.18-.37,5.21-.43,10.5,0,15.7.8,9.71,2.93,19.12,6.75,28.19,4.7,11.16,11.88,20.43,20.82,28.36,6.87,6.11,14.85,10.6,23.36,14.06,7.98,3.24,16.29,5.48,24.82,6.41,7.26.79,14.64,1.28,21.91.89,8.65-.46,17.24-1.99,25.86-3.05.6-.07,1.22,0,2,0v32.25c-3.77.6-7.59,1.46-11.46,1.76-8.19.64-16.41,1.4-24.6,1.32-8.69-.08-17.35-.96-25.96-2.53-13.45-2.45-26.22-6.74-38.28-13.07-7.9-4.15-15.14-9.3-21.91-15.17-11.24-9.74-19.7-21.49-26.06-34.84-4.39-9.22-7.5-18.88-9.02-28.96-.99-6.58-1.5-13.25-1.85-19.9-.3-5.53-.39-11.11.01-16.63.73-10,2.44-19.85,5.37-29.5,3.42-11.29,8.5-21.7,15.27-31.32,8.36-11.89,18.83-21.51,31.23-29.06,11.08-6.76,22.98-11.57,35.6-14.48,5.86-1.35,11.83-2.4,17.81-2.97,8.33-.79,16.71-1.48,25.06-1.34,10.57.18,21.15,1.09,31.43,3.9,5.71,1.56,11.35,3.37,17.34,5.16,1.05.49,1.76.97,2.53,1.28,8.84,3.42,17.04,7.99,24.71,13.55,1.96,1.42,3.96,2.78,5.94,4.17M1006.74,133.87c-5.81-4.99-12.67-6.63-20.09-5.92-5.37.51-10.27,2.56-14.03,6.52-5.1,5.37-7.26,12.08-7.51,19.36-.19,5.56.74,11.03,3.26,16.02,2.19,4.34,5.02,8.3,9.59,10.56,8.57,4.24,17.07,3.99,25.24-.94,4.96-2.99,8.16-7.43,9.83-13.07,1.41-4.76,1.37-9.59,1.33-14.44-.06-6.94-2.11-13.07-7.62-18.09Z"/>
  <path class="cls-4" d="M0,177.64V38.53h2.81c23.33,0,46.67-.29,69.99.11,14.49.25,28.65,2.94,41.98,9.1,7.95,3.67,15.23,8.25,21.75,14.15,6.36,5.77,11.45,12.41,15.67,19.84,4.87,8.57,8.11,17.79,9.28,27.44,1.12,9.21,1.43,18.62.95,27.89-.57,11.29-3.91,22.09-9.06,32.22-3.3,6.49-7.55,12.33-12.37,17.84-7.78,8.9-17.31,15.33-27.87,20.31-8.01,3.77-16.41,6.47-25.23,7.51-5.34.63-10.72,1.29-16.08,1.35-23.69.28-47.37.35-71.06.49-.15,0-.29-.06-.78-.18v-38.95M47.29,174.42c10.91-.31,21.87.81,32.74-.93,8.27-1.33,15.84-4.32,22.22-9.89,9.29-8.11,13.8-18.67,14.64-30.69.41-5.87.01-11.92-.92-17.75-1.39-8.71-5.07-16.39-11.81-22.54-8.75-7.99-19.26-11.11-30.67-11.63-8.57-.39-17.18-.08-25.77-.08h-2.57v47.24c0,14.73,0,29.46,0,44.19,0,1.22-.11,2.41,2.15,2.08Z"/>
  <path class="cls-4" d="M1667.56,215.42c-11.67,0-23.11-.02-34.54.03-1.59,0-2.57-.39-3.52-1.83-8.48-12.93-17.1-25.78-25.65-38.67-2.5-3.77-4.91-7.6-7.34-11.42-.69-1.08-1.49-1.61-2.92-1.59-6.98.1-13.97.05-20.96.05-.67,0-1.35,0-2.2,0v53.26h-45.07V38.53h2.56c25.26,0,50.52-.28,75.76.11,14.94.23,29.43,3.24,42.56,10.94,12.64,7.41,20.74,18.21,24.09,32.55,1.91,8.17,2.16,16.46,1.76,24.74-.39,8.1-2.05,16.03-5.73,23.35-3.21,6.38-7.62,11.92-13.38,16.17-4.05,3-8.43,5.56-12.74,8.37,13.96,19.89,28.15,40.13,42.57,60.67h-15.25M1592.71,76.3h-22.23v50.67h2.58c9.28,0,18.57.07,27.85-.04,2.78-.03,5.65-.24,8.31-.95,7.02-1.89,12.12-6.22,15.1-12.95,2.24-5.08,2.63-10.3,1.82-15.76-1.4-9.46-6.42-15.87-15.39-19.18-5.71-2.11-11.66-1.76-18.04-1.79Z"/>
  <path class="cls-4" d="M673.37,247.54c-9.27,9.59-20.79,14.68-33.34,17.54-6.16,1.4-12.49,2.15-18.79,2.8-5.82.6-11.71,1.01-17.55.9-8.83-.16-17.65-.76-26.46-1.35-3.66-.24-7.3-.92-10.98-1.41v-36.8c2.66.18,5.21.29,7.75.54,4.07.39,8.11,1.12,12.18,1.27,8.49.32,16.99.65,25.47.42,7.49-.2,14.88-1.53,21.67-4.98,7.31-3.72,11.84-9.69,12.9-17.83.66-5.05.53-10.21.78-15.86-2.1,2.83-3.83,5.2-5.6,7.53-4.33,5.71-10.08,9.57-16.58,12.32-5.76,2.44-11.81,3.4-18.07,3.79-10.57.66-20.72-.81-30.13-5.56-14.01-7.08-23.05-18.56-27.97-33.39-2.13-6.41-3.53-12.95-3.7-19.74-.12-4.96-.59-9.93-.39-14.88.39-9.94,2.21-19.6,6.34-28.78,3.71-8.25,8.9-15.36,15.63-21.29,7.63-6.72,16.5-11.28,26.6-12.7,6.31-.89,12.8-1.33,19.14-.89,10.31.71,19.61,4.41,27.5,11.45,6.05,5.4,10.14,12.01,13.47,19.34v-27.12h34.98v2.4c0,39.23.15,78.45-.09,117.68-.07,11.6-1.92,23.09-7.34,33.57-2,3.85-4.84,7.27-7.41,11M603.03,176.51c4.91,2.7,10.16,3.61,15.75,3.5,7.44-.14,13.73-2.83,18.95-7.92,5.47-5.33,7.78-12.16,8.04-19.63.16-4.64-.09-9.31-.44-13.94-.4-5.19-2.48-9.85-6.02-13.62-7.32-7.81-16.36-10.83-26.96-8.99-10.78,1.88-17.61,8.43-21.32,18.41-2.35,6.34-2.8,12.92-1.9,19.68,1.26,9.52,5.17,17.26,13.9,22.52Z"/>
  <path class="cls-4" d="M1343.13,187.01c-2.27-3.4-4.62-6.57-6.58-9.96-4.7-8.15-8.08-16.86-10-26.06-1.03-4.94-1.63-9.98-2.12-15.01-.4-4.09-.58-8.24-.47-12.35.36-12.94,2.68-25.49,7.73-37.49,3.55-8.44,8.35-16.03,14.3-23,7.99-9.36,17.76-16.11,28.91-21.12,8-3.6,16.4-5.74,25.02-6.6,7.36-.73,14.86-.94,22.24-.47,13.45.85,26.45,4.03,38.2,10.88,5.19,3.03,9.99,6.78,14.7,10.54,7.34,5.86,12.59,13.5,16.73,21.81,3.88,7.8,6.39,16.1,7.21,24.84.11,1.12.36,2.22.58,3.52h-44.54c-1.95-4.27-3.35-8.65-5.77-12.37-5.76-8.88-14.2-14.11-24.6-16-3.78-.69-7.66-1.4-11.47-1.32-9.85.21-19.26,2.36-27.01,8.91-7.32,6.19-12.03,14.12-14.35,23.46-1.67,6.74-2.56,13.59-2.25,20.5.5,11.38,2.69,22.34,9.63,31.81,6.18,8.44,14.42,13.82,24.7,15.55,5.14.86,10.49,1.24,15.69.91,11.9-.76,22.39-5.05,30.38-14.28,3.4-3.94,5.65-8.55,6.6-13.72.22-1.2.59-1.87,2.02-1.86,14.28.05,28.56.04,42.84.05.15,0,.29.07.89.22-.63,3.23-1.28,6.5-1.92,9.76-2.08,10.65-6.75,20.18-13.08,28.84-6.33,8.66-14.28,15.64-23.57,21.15-9.28,5.52-19.25,9.06-29.8,10.84-8.42,1.42-16.98,1.96-25.52,1.42-9.73-.62-19.36-2.07-28.55-5.58-7.74-2.96-14.82-7.1-21.42-12.1-5.86-4.44-10.9-9.67-15.33-15.74Z"/>
  <path class="cls-4" d="M1261.73,39.91h39.61v2.63c0,35.31.29,70.63-.12,105.93-.2,16.86-4.75,32.73-15.41,46.25-9.13,11.58-21.09,19.05-35.4,22.44-6.14,1.45-12.49,2.13-18.78,2.8-4.54.48-9.17.7-13.72.46-15.74-.83-30.81-4.04-44.08-13.26-11.32-7.86-19.19-18.32-23.92-31.17-2.65-7.17-4.39-14.57-4.73-22.26-.12-2.66-.43-5.32-.43-7.98-.03-34.24-.02-68.47-.02-102.71v-2.95h45.14v2.61c0,35.16-.25,70.32.14,105.47.13,11.68,5.5,21.22,16.41,26.63,7.29,3.61,15.14,3.91,23.12,2.89,6.41-.82,12.05-3.06,16.88-7.48,4.83-4.43,7.65-9.9,8.78-16.19.71-3.94.95-8,.96-12.01.07-33.01.04-66.02.04-99.03v-3.08h5.53Z"/>
  <path class="cls-4" d="M260.21,182.73c4.23-1.75,7.35-4.52,9.56-8.33.24-.42.88-.86,1.34-.86,13.04-.05,26.08-.04,39.35-.04-1.92,8.84-5.44,16.65-10.92,23.67-6.17,7.89-13.95,13.58-22.95,17.69-5.59,2.54-11.49,4.14-17.61,4.68-5.15.45-10.33,1.05-15.48.86-11.61-.41-22.62-3.08-32.83-9.01-10.82-6.29-18.98-14.96-24.98-25.79-4.09-7.38-6.93-15.25-7.81-23.65-.64-6.05-1.1-12.17-.88-18.24.34-9.33,2.51-18.32,6.33-26.93,3.98-8.98,9.64-16.72,17.02-23.06,8.43-7.23,18.12-12.25,29.16-14.15,4.39-.76,8.86-1.13,13.31-1.39,12.59-.75,24.69,1.2,35.86,7.35,9.76,5.37,17.61,12.81,23.43,22.34,4.81,7.88,8.17,16.38,9.58,25.46.91,5.84.83,11.83,1.07,17.76.14,3.36.02,6.74.02,10.34h-93.99c2.58,10.81,7.56,19.21,18.74,22.29,4.62,1.27,9.35,1.93,14.15.86,2.78-.62,5.57-1.21,8.52-1.86M228.04,119.35c-5.36,4.83-7.83,11.11-9.28,18.12h52.8c-1.05-3.32-1.81-6.55-3.07-9.57-3.43-8.2-9.67-13.19-18.49-14.19-7.79-.89-15.31.28-21.95,5.65Z"/>
  <path class="cls-4" d="M813.51,215.42h-11.52v-2.86c0-25.1.03-50.21-.02-75.31-.01-7.2-3.21-12.85-9.14-16.86-5.43-3.67-15.93-3.4-21.49.11-6.59,4.16-9.41,10.2-9.42,17.75-.02,24.8,0,49.59,0,74.39v2.63h-44.03V82.91h34.73v30.47c1.88-4.52,3.5-9.46,5.9-13.99,5.75-10.87,14.84-17.41,26.95-19.92,6.69-1.39,13.48-1.38,20.08-.7,14.94,1.53,26.47,8.71,33.38,22.56,3.59,7.2,5.7,14.78,6.33,22.73.53,6.76.89,13.55.92,20.32.11,22.65.04,45.29.04,67.94v3.09h-32.71Z"/>
  <path class="cls-4" d="M342.27,152.31c-7.3-6.12-12.02-13.77-13.22-23.02-1.55-11.95-.09-23.36,8.2-33.08,6.03-7.08,13.79-11.12,22.4-13.91,10.9-3.54,22.19-3.78,33.43-3.13,12.02.69,23.52,3.6,33.78,10.42,10.27,6.82,16,16.45,18.09,28.41.36,2.08.38,4.22.58,6.54-.82.05-1.49.14-2.15.14-11.52,0-23.03-.02-34.55.04-1.63,0-2.25-.4-2.75-2.12-1.47-5.14-5.08-8.65-9.95-10.53-6.66-2.57-13.58-2.93-20.43-.7-3.02.98-6.02,2.29-7.18,5.73-1.45,4.29-.23,8.02,3.91,9.84,3.4,1.5,7.08,2.57,10.75,3.2,9.37,1.6,18.88,2.4,28.17,4.33,10.37,2.15,19.73,6.83,27.23,14.51,5.35,5.48,8.61,12.15,9.65,19.83.87,6.39.8,12.73-.95,18.98-1.36,4.85-3.63,9.23-6.87,13.14-7.81,9.42-18.28,14.17-29.86,16.73-4.7,1.04-9.56,1.45-14.37,1.87-4.25.37-8.55.66-12.81.45-11.67-.57-23.17-2.21-33.77-7.58-10.47-5.29-18.37-13.04-22.33-24.28-1.58-4.47-2.4-9.14-2.55-14.15h2.28c11.44,0,22.88.02,34.32-.02,1.54,0,2.26.24,2.8,2.04,1.61,5.31,5.76,8.45,10.7,10.38,8.57,3.36,17.39,3.1,26.13.79,3.33-.88,6.58-2.35,8.03-6.05,1.56-3.99-.56-8.94-5.09-11.33-4.15-2.2-8.64-3.09-13.22-3.63-11.53-1.36-23.21-1.87-34.25-6-5.05-1.89-9.9-4.15-14.14-7.83Z"/>
  <path class="cls-4" d="M503.03,82.75h17.36v132.54h-43.99v-100.26h-16.56v-32.28h43.18Z"/>
  <path class="cls-4" d="M1082.75,62.98c-2.2-1.36-4.2-2.72-6.16-4.14-7.67-5.56-15.87-10.12-24.71-13.55-.78-.3-1.48-.78-2.37-1.25-2.44-4.54-4.82-8.93-5.8-13.99-1.51-7.81-1.07-15.37,1.97-22.72,1.02-2.47,2.37-4.82,3.62-7.34,9.05,4.84,15.51,11.46,19.13,20.55,3.56,8.96,3.56,18.15.88,27.54,6.59-7.43,14.84-11.81,24.51-13.04,9.6-1.22,18.69.69,26.91,6.33-4.46,8.72-11.03,14.98-19.94,18.8-5.72,2.45-11.7,3.02-18.04,2.8M1105.37,45.51c-9.35,3.3-18.95,5.66-28.72,7.35-.97.17-1.9.62-2.85.94.12.33.23.67.35,1,11.62-1.39,22.7-4.75,33.33-9.83-.59.15-1.19.29-2.11.55M1053.15,15.68c-.13-.48-.26-.95-.39-1.43-.09,3.26.08,6.46.83,9.51,1.72,7.02,3.7,13.98,5.65,20.94.17.6.91,1.03,1.39,1.54.08-.67.37-1.41.19-2-.8-2.55-1.95-5.01-2.6-7.59-1.74-6.85-3.29-13.75-5.06-20.97Z"/>
  <path class="cls-4" d="M487.62,28.96c5.1-.71,9.99-.82,14.88.33,7.77,1.82,12.51,6.57,14.4,14.29,1.83,7.48,1.12,14.53-3.22,21.07-2.88,4.33-7.15,6.5-12.01,7.41-5.41,1.01-10.94,1.05-16.26-.49-7.59-2.2-12.13-7.55-13.62-15.2-1.42-7.29-.66-14.28,4.01-20.51,2.96-3.95,7.09-5.7,11.82-6.9Z"/>
  <path class="cls-3" d="M1105.53,45.45c.76-.2,1.35-.35,1.95-.49-10.63,5.08-21.71,8.45-33.33,9.83-.12-.33-.23-.67-.35-1,.95-.32,1.87-.77,2.85-.94,9.77-1.69,19.36-4.05,28.88-7.4Z"/>
  <path class="cls-2" d="M1053.22,15.84c1.7,7.05,3.25,13.95,4.99,20.8.66,2.58,1.8,5.04,2.6,7.59.19.59-.11,1.33-.19,2-.48-.51-1.22-.94-1.39-1.54-1.95-6.96-3.93-13.92-5.65-20.94-.75-3.05-.92-6.25-.83-9.51.13.48.26.95.46,1.6Z"/>
</svg>